<?xml version="1.0" encoding="UTF-8" standalone="no"?>
<svg
   xmlns:dc="http://purl.org/dc/elements/1.1/"
   xmlns:cc="http://creativecommons.org/ns#"
   xmlns:rdf="http://www.w3.org/1999/02/22-rdf-syntax-ns#"
   xmlns:svg="http://www.w3.org/2000/svg"
   xmlns="http://www.w3.org/2000/svg"
   xmlns:sodipodi="http://sodipodi.sourceforge.net/DTD/sodipodi-0.dtd"
   xmlns:inkscape="http://www.inkscape.org/namespaces/inkscape"
   version="1.1"
   id="Capa_1"
   x="0px"
   y="0px"
   viewBox="0 0 396.016 396.016"
   style="enable-background:new 0 0 396.016 396.016;"
   xml:space="preserve"
   sodipodi:docname="bag.svg"
   inkscape:version="1.0.2-2 (e86c870879, 2021-01-15)"><metadata
   id="metadata47"><rdf:RDF><cc:Work
       rdf:about=""><dc:format>image/svg+xml</dc:format><dc:type
         rdf:resource="http://purl.org/dc/dcmitype/StillImage" /></cc:Work></rdf:RDF></metadata><defs
   id="defs45">
	
</defs><sodipodi:namedview
   pagecolor="#ffffff"
   bordercolor="#666666"
   borderopacity="1"
   objecttolerance="10"
   gridtolerance="10"
   guidetolerance="10"
   inkscape:pageopacity="0"
   inkscape:pageshadow="2"
   inkscape:window-width="1920"
   inkscape:window-height="1011"
   id="namedview43"
   showgrid="false"
   inkscape:zoom="1.5070051"
   inkscape:cx="209.33621"
   inkscape:cy="231.69033"
   inkscape:window-x="-8"
   inkscape:window-y="38"
   inkscape:window-maximized="1"
   inkscape:current-layer="Capa_1" />
<g
   id="g8"
   style="fill:#ffffff">
		<g
   id="g6"
   style="fill:#ffffff">
			<path
   d="m 9.404,160.914 37.094,200.62 c 3.519,19.801 20.641,34.289 40.751,34.482 h 221.518 c 20.111,-0.193 37.232,-14.68 40.751,-34.482 l 37.094,-200.62 z m 120.686,89.862 c 0,5.771 -4.678,10.449 -10.449,10.449 -5.771,0 -10.449,-4.678 -10.449,-10.449 v -31.347 c 0,-5.771 4.678,-10.449 10.449,-10.449 5.771,0 10.449,4.678 10.449,10.449 z m 156.735,0 c 0,5.771 -4.678,10.449 -10.449,10.449 -5.771,0 -10.449,-4.678 -10.449,-10.449 v -31.347 c 0,-5.771 4.678,-10.449 10.449,-10.449 5.771,0 10.449,4.678 10.449,10.449 z"
   id="path2"
   style="fill:#ffffff" />
			<path
   d="m 130.09,88.816 c 0,-37.51 30.408,-67.918 67.918,-67.918 37.51,0 67.918,30.408 67.918,67.918 v 61.649 h 20.898 V 88.816 C 286.825,39.764 247.06,0 198.008,0 148.956,0 109.192,39.764 109.192,88.816 v 61.649 h 20.898 z"
   id="path4"
   style="fill:#ffffff" />
		</g>
	</g>
<g
   id="g12">
</g>
<g
   id="g14">
</g>
<g
   id="g16">
</g>
<g
   id="g18">
</g>
<g
   id="g20">
</g>
<g
   id="g22">
</g>
<g
   id="g24">
</g>
<g
   id="g26">
</g>
<g
   id="g28">
</g>
<g
   id="g30">
</g>
<g
   id="g32">
</g>
<g
   id="g34">
</g>
<g
   id="g36">
</g>
<g
   id="g38">
</g>
<g
   id="g40">
</g>
</svg>
