<?xml version="1.0" encoding="iso-8859-1"?>
<!-- Generator: Adobe Illustrator 19.0.0, SVG Export Plug-In . SVG Version: 6.00 Build 0)  -->
<svg version="1.1" id="Capa_1" xmlns="http://www.w3.org/2000/svg" xmlns:xlink="http://www.w3.org/1999/xlink" x="0px" y="0px"
	 viewBox="0 0 218.453 218.453" style="enable-background:new 0 0 218.453 218.453;" xml:space="preserve">
<path style="fill:#FEDA38;" d="M156.868,129.707H54.613V67.739c0-9.134,7.405-16.539,16.539-16.539h69.323
	c9.134,0,16.539,7.405,16.539,16.539v61.824C157.013,129.642,156.948,129.707,156.868,129.707z"/>
<path d="M156.868,133.12H54.613c-1.884,0-3.413-1.529-3.413-3.413V67.738c0-11.001,8.95-19.951,19.951-19.951h69.323
	c11.001,0,19.951,8.95,19.951,19.951v61.824C160.427,131.523,158.829,133.12,156.868,133.12z M58.027,126.293H153.6V67.738
	c0-7.236-5.888-13.124-13.124-13.124H71.151c-7.238,0-13.124,5.888-13.124,13.124V126.293z"/>
<path d="M40.96,58.027H13.653c-1.884,0-3.413-1.529-3.413-3.413s1.529-3.413,3.413-3.413H40.96c1.884,0,3.413,1.529,3.413,3.413
	S42.844,58.027,40.96,58.027z"/>
<path d="M40.96,75.093H30.72c-1.884,0-3.413-1.529-3.413-3.413c0-1.884,1.529-3.413,3.413-3.413h10.24
	c1.884,0,3.413,1.529,3.413,3.413C44.373,73.564,42.844,75.093,40.96,75.093z"/>
<path d="M20.48,75.093H3.413C1.529,75.093,0,73.564,0,71.68c0-1.884,1.529-3.413,3.413-3.413H20.48c1.884,0,3.413,1.529,3.413,3.413
	C23.893,73.564,22.364,75.093,20.48,75.093z"/>
<path d="M40.96,92.16H27.307c-1.884,0-3.413-1.529-3.413-3.413c0-1.884,1.529-3.413,3.413-3.413H40.96
	c1.884,0,3.413,1.529,3.413,3.413C44.373,90.631,42.844,92.16,40.96,92.16z"/>
<path style="fill:#777777;" d="M202.831,153.6H54.613v-23.893H215.04v11.684C215.04,148.134,209.574,153.6,202.831,153.6z"/>
<path d="M202.831,157.013H54.613c-1.884,0-3.413-1.529-3.413-3.413v-23.893c0-1.884,1.529-3.413,3.413-3.413H215.04
	c1.884,0,3.413,1.529,3.413,3.413v11.684C218.453,150.006,211.446,157.013,202.831,157.013z M58.027,150.187h144.804
	c4.85,0,8.796-3.946,8.796-8.796v-8.27h-153.6L58.027,150.187L58.027,150.187z"/>
<path style="fill:#FEDA38;" d="M157.013,75.093h24.231c18.664,0,33.795,15.131,33.795,33.795v20.818h-58.027V75.093z"/>
<path d="M215.04,133.12h-58.027c-1.884,0-3.413-1.529-3.413-3.413V75.093c0-1.884,1.529-3.413,3.413-3.413h24.231
	c20.518,0,37.209,16.691,37.209,37.209v20.818C218.453,131.591,216.924,133.12,215.04,133.12z M160.427,126.293h51.2v-17.405
	c0-16.751-13.629-30.382-30.382-30.382h-20.818V126.293z"/>
<path style="fill:#2ABBE9;" d="M204.8,109.227h-37.547v-20.48h17.067C195.63,88.747,204.8,97.917,204.8,109.227L204.8,109.227z"/>
<path d="M204.8,112.64h-37.547c-1.884,0-3.413-1.529-3.413-3.413v-20.48c0-1.884,1.529-3.413,3.413-3.413h17.067
	c13.175,0,23.893,10.718,23.893,23.893C208.213,111.111,206.684,112.64,204.8,112.64z M170.667,105.813h30.377
	c-1.587-7.781-8.482-13.653-16.724-13.653h-13.653V105.813z"/>
<circle style="fill:#777777;" cx="81.92" cy="153.6" r="13.653"/>
<path d="M81.92,170.667c-9.411,0-17.067-7.656-17.067-17.067s7.656-17.067,17.067-17.067s17.067,7.656,17.067,17.067
	S91.331,170.667,81.92,170.667z M81.92,143.36c-5.647,0-10.24,4.593-10.24,10.24s4.593,10.24,10.24,10.24
	c5.647,0,10.24-4.593,10.24-10.24S87.567,143.36,81.92,143.36z"/>
<circle style="fill:#777777;" cx="187.733" cy="153.6" r="13.653"/>
<path d="M187.733,170.667c-9.411,0-17.067-7.656-17.067-17.067s7.656-17.067,17.067-17.067S204.8,144.189,204.8,153.6
	S197.144,170.667,187.733,170.667z M187.733,143.36c-5.647,0-10.24,4.593-10.24,10.24s4.593,10.24,10.24,10.24
	s10.24-4.593,10.24-10.24S193.381,143.36,187.733,143.36z"/>
<path d="M215.04,170.667H6.827c-1.884,0-3.413-1.529-3.413-3.413c0-1.884,1.529-3.413,3.413-3.413H215.04
	c1.884,0,3.413,1.529,3.413,3.413C218.453,169.137,216.924,170.667,215.04,170.667z"/>
<g>
</g>
<g>
</g>
<g>
</g>
<g>
</g>
<g>
</g>
<g>
</g>
<g>
</g>
<g>
</g>
<g>
</g>
<g>
</g>
<g>
</g>
<g>
</g>
<g>
</g>
<g>
</g>
<g>
</g>
</svg>
