<?xml version="1.0" encoding="iso-8859-1"?>
<!-- Generator: Adobe Illustrator 19.0.0, SVG Export Plug-In . SVG Version: 6.00 Build 0)  -->
<svg version="1.1" id="Capa_1" xmlns="http://www.w3.org/2000/svg" xmlns:xlink="http://www.w3.org/1999/xlink" x="0px" y="0px"
	 viewBox="0 0 197.975 197.975" style="enable-background:new 0 0 197.975 197.975;" xml:space="preserve">
<polygon style="fill:#DDDDDD;" points="57.836,3.413 160.428,3.413 160.428,194.56 140.163,187.733 126.296,194.56 113.068,187.733 
	99.201,194.56 85.761,187.733 71.469,194.56 58.026,187.733 37.548,194.56 37.548,23.893 "/>
<path d="M160.428,197.973c-0.365,0-0.734-0.06-1.091-0.178l-18.93-6.378l-12.604,6.205c-0.971,0.48-2.111,0.468-3.074-0.029
	l-11.698-6.038l-12.324,6.067c-0.964,0.473-2.096,0.466-3.053-0.019l-11.94-6.065l-12.774,6.101
	c-0.956,0.457-2.07,0.444-3.017-0.036l-12.17-6.182l-19.127,6.376c-1.039,0.348-2.186,0.172-3.075-0.469
	c-0.889-0.643-1.417-1.673-1.417-2.77V23.893c0-0.899,0.355-1.763,0.988-2.403L55.411,1.01C56.051,0.364,56.925,0,57.836,0h102.591
	c1.884,0,3.413,1.529,3.413,3.413V194.56c0,1.099-0.529,2.132-1.422,2.773C161.83,197.753,161.132,197.973,160.428,197.973z
	 M58.026,184.32c0.532,0,1.062,0.125,1.546,0.37l11.943,6.066l12.776-6.101c0.956-0.457,2.072-0.444,3.017,0.036l11.918,6.054
	l12.336-6.072c0.973-0.478,2.113-0.466,3.072,0.029l11.699,6.038l12.324-6.067c0.811-0.398,1.743-0.461,2.598-0.172l15.761,5.309
	V6.827H59.262l-18.301,18.47v164.526l15.986-5.33C57.297,184.378,57.662,184.32,58.026,184.32z"/>
<path d="M136.534,34.133H61.441c-1.884,0-3.413-1.529-3.413-3.413c0-1.884,1.529-3.413,3.413-3.413h75.093
	c1.884,0,3.413,1.529,3.413,3.413C139.948,32.604,138.418,34.133,136.534,34.133z"/>
<path d="M136.534,68.267H61.441c-1.884,0-3.413-1.529-3.413-3.413c0-1.884,1.529-3.413,3.413-3.413h75.093
	c1.884,0,3.413,1.529,3.413,3.413C139.948,66.738,138.418,68.267,136.534,68.267z"/>
<path d="M92.161,51.2h-30.72c-1.884,0-3.413-1.529-3.413-3.413c0-1.884,1.529-3.413,3.413-3.413h30.72
	c1.884,0,3.413,1.529,3.413,3.413C95.574,49.671,94.045,51.2,92.161,51.2z"/>
<path d="M64.854,98.987H51.201c-1.884,0-3.413-1.529-3.413-3.413c0-1.884,1.529-3.413,3.413-3.413h13.653
	c1.884,0,3.413,1.529,3.413,3.413C68.268,97.458,66.738,98.987,64.854,98.987z"/>
<path d="M95.574,98.987H81.921c-1.884,0-3.413-1.529-3.413-3.413c0-1.884,1.529-3.413,3.413-3.413h13.653
	c1.884,0,3.413,1.529,3.413,3.413C98.988,97.458,97.458,98.987,95.574,98.987z"/>
<path d="M126.294,98.987h-13.653c-1.884,0-3.413-1.529-3.413-3.413c0-1.884,1.529-3.413,3.413-3.413h13.653
	c1.884,0,3.413,1.529,3.413,3.413C129.708,97.458,128.178,98.987,126.294,98.987z"/>
<path d="M157.014,98.987h-13.653c-1.884,0-3.413-1.529-3.413-3.413c0-1.884,1.529-3.413,3.413-3.413h13.653
	c1.884,0,3.413,1.529,3.413,3.413C160.428,97.458,158.898,98.987,157.014,98.987z"/>
<path d="M136.534,51.2h-30.72c-1.884,0-3.413-1.529-3.413-3.413c0-1.884,1.529-3.413,3.413-3.413h30.72
	c1.884,0,3.413,1.529,3.413,3.413C139.948,49.671,138.418,51.2,136.534,51.2z"/>
<path d="M144.074,154.17c0,3.593-1.348,6.56-4.043,8.897c-2.695,2.34-6.461,3.813-11.298,4.42v9.197h-5.113v-8.841
	c-2.959,0-5.827-0.23-8.602-0.693c-2.773-0.461-5.047-1.102-6.816-1.923v-6.183c2.193,0.98,4.724,1.78,7.59,2.4
	c2.865,0.62,5.477,0.93,7.828,0.93v-17.44c-5.417-1.717-9.214-3.714-11.395-5.987s-3.27-5.207-3.27-8.8
	c0-3.459,1.34-6.303,4.023-8.523c2.681-2.217,6.228-3.567,10.641-4.04v-7.217h5.113v7.137c4.864,0.133,9.554,1.109,14.073,2.934
	l-2.062,5.193c-3.939-1.56-7.941-2.487-12.012-2.777v17.203c4.151,1.323,7.255,2.61,9.317,3.867c2.06,1.253,3.581,2.693,4.559,4.32
	C143.585,149.866,144.074,151.842,144.074,154.17z M115.653,130.067c0,2.01,0.596,3.623,1.783,4.837
	c1.19,1.217,3.25,2.367,6.183,3.449v-15.34c-2.615,0.423-4.596,1.246-5.944,2.476C116.327,126.72,115.653,128.242,115.653,130.067z
	 M137.336,154.682c0-1.903-0.59-3.441-1.765-4.617c-1.176-1.176-3.454-2.347-6.839-3.511v15.42
	C134.467,161.183,137.336,158.752,137.336,154.682z"/>
<g>
</g>
<g>
</g>
<g>
</g>
<g>
</g>
<g>
</g>
<g>
</g>
<g>
</g>
<g>
</g>
<g>
</g>
<g>
</g>
<g>
</g>
<g>
</g>
<g>
</g>
<g>
</g>
<g>
</g>
</svg>
