<?xml version="1.0" encoding="UTF-8" standalone="no"?>
<svg
   xmlns:dc="http://purl.org/dc/elements/1.1/"
   xmlns:cc="http://creativecommons.org/ns#"
   xmlns:rdf="http://www.w3.org/1999/02/22-rdf-syntax-ns#"
   xmlns:svg="http://www.w3.org/2000/svg"
   xmlns="http://www.w3.org/2000/svg"
   xmlns:sodipodi="http://sodipodi.sourceforge.net/DTD/sodipodi-0.dtd"
   xmlns:inkscape="http://www.inkscape.org/namespaces/inkscape"
   version="1.1"
   id="Capa_1"
   x="0px"
   y="0px"
   viewBox="0 0 60.123 60.123"
   style="enable-background:new 0 0 60.123 60.123;"
   xml:space="preserve"
   sodipodi:docname="menu.svg"
   inkscape:version="1.0.2-2 (e86c870879, 2021-01-15)"><metadata
   id="metadata51"><rdf:RDF><cc:Work
       rdf:about=""><dc:format>image/svg+xml</dc:format><dc:type
         rdf:resource="http://purl.org/dc/dcmitype/StillImage" /></cc:Work></rdf:RDF></metadata><defs
   id="defs49" /><sodipodi:namedview
   pagecolor="#ffffff"
   bordercolor="#666666"
   borderopacity="1"
   objecttolerance="10"
   gridtolerance="10"
   guidetolerance="10"
   inkscape:pageopacity="0"
   inkscape:pageshadow="2"
   inkscape:window-width="1920"
   inkscape:window-height="1011"
   id="namedview47"
   showgrid="false"
   inkscape:zoom="14.037889"
   inkscape:cx="30.061501"
   inkscape:cy="30.061501"
   inkscape:window-x="-8"
   inkscape:window-y="38"
   inkscape:window-maximized="1"
   inkscape:current-layer="Capa_1" />
<g
   id="g14"
   style="fill:#ffffff">
	<path
   d="M57.124,51.893H16.92c-1.657,0-3-1.343-3-3s1.343-3,3-3h40.203c1.657,0,3,1.343,3,3S58.781,51.893,57.124,51.893z"
   id="path2"
   style="fill:#ffffff" />
	<path
   d="M57.124,33.062H16.92c-1.657,0-3-1.343-3-3s1.343-3,3-3h40.203c1.657,0,3,1.343,3,3   C60.124,31.719,58.781,33.062,57.124,33.062z"
   id="path4"
   style="fill:#ffffff" />
	<path
   d="M57.124,14.231H16.92c-1.657,0-3-1.343-3-3s1.343-3,3-3h40.203c1.657,0,3,1.343,3,3S58.781,14.231,57.124,14.231z"
   id="path6"
   style="fill:#ffffff" />
	<circle
   cx="4.029"
   cy="11.463"
   r="4.029"
   id="circle8"
   style="fill:#ffffff" />
	<circle
   cx="4.029"
   cy="30.062"
   r="4.029"
   id="circle10"
   style="fill:#ffffff" />
	<circle
   cx="4.029"
   cy="48.661"
   r="4.029"
   id="circle12"
   style="fill:#ffffff" />
</g>
<g
   id="g16">
</g>
<g
   id="g18">
</g>
<g
   id="g20">
</g>
<g
   id="g22">
</g>
<g
   id="g24">
</g>
<g
   id="g26">
</g>
<g
   id="g28">
</g>
<g
   id="g30">
</g>
<g
   id="g32">
</g>
<g
   id="g34">
</g>
<g
   id="g36">
</g>
<g
   id="g38">
</g>
<g
   id="g40">
</g>
<g
   id="g42">
</g>
<g
   id="g44">
</g>
</svg>
