<svg height="512" viewBox="0 0 64 64" width="512" xmlns="http://www.w3.org/2000/svg"><g id="Loader"><path d="m59.859 7.326-7.727-2.071a4 4 0 0 0 -4.9 2.829l-5.432 20.292-4.94 18.629a6.939 6.939 0 0 1 3.8 1.027h.015l10.163-37.947a1 1 0 0 1 1.224-.707l6.762 1.812a2 2 0 0 0 1.035-3.864z" fill="#ff5023"/><path d="m41.797 28.368-27.045-7.247-6.212 23.183.108.039 26.96 7.365z" fill="#b38b63"/><path d="m29.777 46.115-20.241-5.529-1 3.718.108.039 26.96 7.365 6.196-23.34-.99-.265-3.65 13.762a6 6 0 0 1 -7.383 4.25z" fill="#a97c50"/><path d="m31.033 50.345v-.014l-22.493-6.031-1.932-.518a2 2 0 0 0 -1.035 3.868l24.427 6.55v-.014a6.946 6.946 0 0 1 1.028-3.836z" fill="#ff5023"/><path d="m43.76 55.81a7 7 0 1 1 -4.95-8.57 6.994 6.994 0 0 1 4.95 8.57z" fill="#006df0"/><path d="m39.9 54.776a3 3 0 1 0 -3.676 2.124 3 3 0 0 0 3.676-2.124z" fill="#f1f2f2"/><path d="m22.789 33.628 3.415-1.156 2.38 2.709 2.588-9.66-5.795-1.553z" fill="#ffb655"/><path d="m45.94 12.91-4.14 15.46-10.63-2.85-5.79-1.55-4.83-1.3 4.14-15.45 8.69 2.33 3.87 1.03z" fill="#cba57c"/><path d="m42.835 22.505a4 4 0 0 1 -4.9 2.829l-6.765-1.814-5.79-1.55-4.33-1.165-.5 1.865 4.83 1.3 5.79 1.55 10.63 2.85 4.14-15.46-.5-.134z" fill="#c49a6c"/><path d="m25.377 23.968 5.795 1.553z" fill="#9bc9ff"/><path d="m31.311 17.276 2.449-1.414 1.415 2.45 2.07-7.728-3.863-1.035z" fill="#ffb655"/><g fill="#231f20"><path d="m38.035 50.136a4 4 0 0 0 -2.07 7.728 3.981 3.981 0 0 0 3.034-.4 4 4 0 0 0 -.964-7.327zm.9 4.382a2.005 2.005 0 1 1 -.205-1.518 1.985 1.985 0 0 1 .202 1.518z"/><path d="m61.939 7.758a2.976 2.976 0 0 0 -1.821-1.4l-7.727-2.068a5.007 5.007 0 0 0 -6.124 3.535l-1.036 3.864-20.284-5.436a1 1 0 0 0 -1.224.707l-3.883 14.49-4.829-1.294a1 1 0 0 0 -1.225.707l-5.953 22.216-.966-.259a3 3 0 1 0 -1.554 5.8l23.752 6.36a8 8 0 1 0 12.751-7.362l9.984-37.274 6.761 1.811a3 3 0 0 0 3.374-4.4zm-31.992 18.471-1.847 6.888-1.147-1.3a1 1 0 0 0 -.751-.34.985.985 0 0 0 -.32.053l-1.647.557 1.847-6.889zm4.142-15.456 1.932.518-1.187 4.429-.207-.358a1 1 0 0 0 -.607-.466 1 1 0 0 0 -.759.1l-.36.207zm-8.689-2.329 6.761 1.812-1.812 6.762a1 1 0 0 0 1.466 1.125l1.584-.915.914 1.584a1 1 0 0 0 .866.5.972.972 0 0 0 .131-.009 1 1 0 0 0 .835-.733l1.811-6.761 6.762 1.812-3.628 13.522-19.319-5.176zm-9.937 13.9 8.693 2.329-2.33 8.694a1 1 0 0 0 1.286 1.206l2.785-.942 1.94 2.208a1 1 0 0 0 1.717-.4l2.329-8.693 8.694 2.329-4.557 16.991a8.041 8.041 0 0 0 -5.4 3.119l-20.855-5.585zm-10.339 23.115a1 1 0 0 1 1.226-.707l23.25 6.23a7.96 7.96 0 0 0 -.327.948 8.13 8.13 0 0 0 -.191.984l-23.25-6.23a1 1 0 0 1 -.708-1.225zm37.676 10.094a6 6 0 1 1 -4.247-7.353 6.006 6.006 0 0 1 4.247 7.353zm17.508-46.037a1 1 0 0 1 -1.225.708l-6.762-1.812a2 2 0 0 0 -2.449 1.414l-9.853 36.774a7.165 7.165 0 0 0 -1.933-.518l10.114-37.739a3 3 0 0 1 3.675-2.122l7.725 2.071a1 1 0 0 1 .707 1.224z"/></g></g></svg>