<svg height="472pt" viewBox="-46 0 472 472.6" width="472pt" xmlns="http://www.w3.org/2000/svg"><path d="m370.300781 462.699219h-360c0-108 80.597657-187.199219 180-187.199219 99.398438 0 180 79.199219 180 187.199219zm0 0" fill="#e48e66"/><path d="m298.300781 117.898438c0 59.648437-48.355469 108-108 108-59.648437 0-108-48.351563-108-108 0-59.644532 48.351563-108 108-108 59.644531 0 108 48.355468 108 108zm0 0" fill="#f8ec7d"/><path d="m182.300781 275.601562c-95.699219 4.097657-172 81.898438-172 187h172zm0 0" fill="#d18162"/><path d="m182.300781 10.199219c-56.371093 4.210937-99.957031 51.175781-99.957031 107.699219 0 56.527343 43.585938 103.492187 99.957031 107.703124zm0 0" fill="#e2d574"/><g fill="#63316d"><path d="m190.300781 236c65.167969 0 118-52.832031 118-118s-52.832031-118-118-118c-65.171875 0-118 52.832031-118 118 .046875 65.148438 52.851563 117.949219 118 118zm0-216c54.125 0 98 43.875 98 98s-43.875 98-98 98-98-43.875-98-98c.085938-54.085938 43.910157-97.914062 98-98zm0 0"/><path d="m190.300781 265.5c-51.300781 0-99 19.898438-134.402343 56.101562-35.898438 36.597657-55.597657 86.699219-55.597657 141 .015625 5.515626 4.484375 9.984376 10 10h360c5.515625-.015624 9.984375-4.484374 10-10 0-54.300781-19.699219-104.5-55.601562-141.101562-35.398438-36.101562-83.097657-56-134.398438-56zm-169.800781 187.101562c2.199219-45.203124 19.699219-86.5 49.601562-117.101562 31.597657-32.300781 74.296876-50.101562 120.097657-50.101562s88.5 17.800781 120.101562 50.101562c30 30.601562 47.398438 71.898438 49.597657 117.101562zm0 0"/></g></svg>