<?xml version="1.0" encoding="iso-8859-1"?>
<!-- Generator: Adobe Illustrator 19.0.0, SVG Export Plug-In . SVG Version: 6.00 Build 0)  -->
<svg version="1.1" id="Capa_1" xmlns="http://www.w3.org/2000/svg" xmlns:xlink="http://www.w3.org/1999/xlink" x="0px" y="0px"
	 viewBox="0 0 197.973 197.973" style="enable-background:new 0 0 197.973 197.973;" xml:space="preserve">
<rect x="20.48" y="98.987" style="fill:#FFDD95;" width="157.013" height="78.507"/>
<path d="M177.493,180.907H20.48c-1.884,0-3.413-1.529-3.413-3.413V98.987c0-1.884,1.529-3.413,3.413-3.413h157.013
	c1.884,0,3.413,1.529,3.413,3.413v78.507C180.907,179.378,179.378,180.907,177.493,180.907z M23.893,174.08H174.08V102.4H23.893
	V174.08z"/>
<rect x="44.373" y="105.813" style="fill:#2ABBE9;" width="44.373" height="37.547"/>
<path d="M88.747,146.773H44.373c-1.884,0-3.413-1.529-3.413-3.413v-37.547c0-1.884,1.529-3.413,3.413-3.413h44.373
	c1.884,0,3.413,1.529,3.413,3.413v37.547C92.16,145.244,90.631,146.773,88.747,146.773z M47.787,139.947h37.547v-30.72H47.787
	V139.947z"/>
<rect x="116.053" y="102.4" style="fill:#2ABBE9;" width="40.96" height="75.093"/>
<path d="M157.013,180.907h-40.96c-1.884,0-3.413-1.529-3.413-3.413V102.4c0-1.884,1.529-3.413,3.413-3.413h40.96
	c1.884,0,3.413,1.529,3.413,3.413v75.093C160.427,179.378,158.898,180.907,157.013,180.907z M119.467,174.08H153.6v-68.267h-34.133
	V174.08z"/>
<path style="fill:#DDDDDD;" d="M44.373,119.467L44.373,119.467c-7.54,0-13.653-6.113-13.653-13.653V20.48h27.307v85.333
	C58.027,113.353,51.913,119.467,44.373,119.467z"/>
<path d="M44.373,122.88c-9.411,0-17.067-7.656-17.067-17.067V20.48c0-1.884,1.529-3.413,3.413-3.413h27.307
	c1.884,0,3.413,1.529,3.413,3.413v85.333C61.44,115.224,53.784,122.88,44.373,122.88z M34.133,23.893v81.92
	c0,5.647,4.593,10.24,10.24,10.24s10.24-4.593,10.24-10.24v-81.92H34.133z"/>
<path style="fill:#ED5481;" d="M71.68,119.467L71.68,119.467c-7.54,0-13.653-6.113-13.653-13.653V20.48h27.307v85.333
	C85.333,113.353,79.22,119.467,71.68,119.467z"/>
<path d="M71.68,122.88c-9.411,0-17.067-7.656-17.067-17.067V20.48c0-1.884,1.529-3.413,3.413-3.413h27.307
	c1.884,0,3.413,1.529,3.413,3.413v85.333C88.747,115.224,81.091,122.88,71.68,122.88z M61.44,23.893v81.92
	c0,5.647,4.593,10.24,10.24,10.24s10.24-4.593,10.24-10.24v-81.92H61.44z"/>
<path style="fill:#ED5481;" d="M17.067,119.467L17.067,119.467c-7.54,0-13.653-6.113-13.653-13.653L10.24,20.48h20.48v85.333
	C30.72,113.353,24.607,119.467,17.067,119.467z"/>
<path d="M17.067,122.88C7.656,122.88,0,115.224,0,105.813c0-0.09,0.003-0.181,0.012-0.273l6.827-85.333
	c0.142-1.773,1.621-3.14,3.401-3.14h20.48c1.884,0,3.413,1.529,3.413,3.413v85.333C34.133,115.224,26.477,122.88,17.067,122.88z
	 M6.827,105.94c0.068,5.588,4.637,10.114,10.24,10.114c5.647,0,10.24-4.593,10.24-10.24v-81.92H13.392L6.827,105.94z"/>
<path style="fill:#DDDDDD;" d="M98.987,119.467L98.987,119.467c-7.54,0-13.653-6.113-13.653-13.653V20.48h27.307v85.333
	C112.64,113.353,106.527,119.467,98.987,119.467z"/>
<path d="M98.987,122.88c-9.411,0-17.067-7.656-17.067-17.067V20.48c0-1.884,1.529-3.413,3.413-3.413h27.307
	c1.884,0,3.413,1.529,3.413,3.413v85.333C116.053,115.224,108.397,122.88,98.987,122.88z M88.747,23.893v81.92
	c0,5.647,4.593,10.24,10.24,10.24s10.24-4.593,10.24-10.24v-81.92H88.747z"/>
<path style="fill:#ED5481;" d="M126.293,119.467L126.293,119.467c-7.54,0-13.653-6.113-13.653-13.653V20.48h27.307v85.333
	C139.947,113.353,133.833,119.467,126.293,119.467z"/>
<path d="M126.293,122.88c-9.411,0-17.067-7.656-17.067-17.067V20.48c0-1.884,1.529-3.413,3.413-3.413h27.307
	c1.884,0,3.413,1.529,3.413,3.413v85.333C143.36,115.224,135.704,122.88,126.293,122.88z M116.053,23.893v81.92
	c0,5.647,4.593,10.24,10.24,10.24s10.24-4.593,10.24-10.24v-81.92H116.053z"/>
<path style="fill:#ED5481;" d="M180.907,119.467L180.907,119.467c-7.54,0-13.653-6.113-13.653-13.653V20.48h20.48l6.827,85.333
	C194.56,113.353,188.447,119.467,180.907,119.467z"/>
<path d="M180.907,122.88c-9.411,0-17.067-7.656-17.067-17.067V20.48c0-1.884,1.529-3.413,3.413-3.413h20.48
	c1.78,0,3.26,1.367,3.401,3.14l6.827,85.333c0.009,0.09,0.012,0.181,0.012,0.273C197.973,115.224,190.317,122.88,180.907,122.88z
	 M170.667,23.893v81.92c0,5.647,4.593,10.24,10.24,10.24c5.603,0,10.172-4.524,10.24-10.114l-6.566-82.046H170.667z"/>
<path style="fill:#DDDDDD;" d="M153.6,119.467L153.6,119.467c-7.54,0-13.653-6.113-13.653-13.653V20.48h27.307v85.333
	C167.253,113.353,161.14,119.467,153.6,119.467z"/>
<path d="M153.6,122.88c-9.411,0-17.067-7.656-17.067-17.067V20.48c0-1.884,1.529-3.413,3.413-3.413h27.307
	c1.884,0,3.413,1.529,3.413,3.413v85.333C170.667,115.224,163.011,122.88,153.6,122.88z M143.36,23.893v81.92
	c0,5.647,4.593,10.24,10.24,10.24s10.24-4.593,10.24-10.24v-81.92H143.36z"/>
<path d="M146.773,143.36h-6.827c-1.884,0-3.413-1.529-3.413-3.413s1.529-3.413,3.413-3.413h6.827c1.884,0,3.413,1.529,3.413,3.413
	S148.658,143.36,146.773,143.36z"/>
<g>
</g>
<g>
</g>
<g>
</g>
<g>
</g>
<g>
</g>
<g>
</g>
<g>
</g>
<g>
</g>
<g>
</g>
<g>
</g>
<g>
</g>
<g>
</g>
<g>
</g>
<g>
</g>
<g>
</g>
</svg>
