<?xml version="1.0" encoding="UTF-8"?>
<!DOCTYPE svg PUBLIC "-//W3C//DTD SVG 1.1//EN" "http://www.w3.org/Graphics/SVG/1.1/DTD/svg11.dtd">
<!-- Creator: CorelDRAW 2020 (64 Bit) -->
<svg xmlns="http://www.w3.org/2000/svg" xml:space="preserve" width="150mm" height="150mm" version="1.1" style="shape-rendering:geometricPrecision; text-rendering:geometricPrecision; image-rendering:optimizeQuality; fill-rule:evenodd; clip-rule:evenodd"
viewBox="0 0 15000 15000"
 xmlns:xlink="http://www.w3.org/1999/xlink"
 xmlns:xodm="http://www.corel.com/coreldraw/odm/2003">
 <defs>
  <style type="text/css">
   <![CDATA[
    .fil2 {fill:black;fill-rule:nonzero}
    .fil1 {fill:#CCF5FC;fill-rule:nonzero}
    .fil0 {fill:#FF7B79;fill-rule:nonzero}
   ]]>
  </style>
 </defs>
 <g id="Camada_x0020_1">
  <metadata id="CorelCorpID_0Corel-Layer"/>
  <polygon class="fil0" points="14008.75,991.25 14008.75,14008.75 8293.75,11627.5 8293.75,3372.5 "/>
  <polygon class="fil1" points="991.25,7500 3372.5,9087.5 3372.5,8293.75 6706.25,8293.75 6706.25,6706.25 3372.5,6706.25 3372.5,5912.5 "/>
  <path class="fil2" d="M726.69 7500c0,-88.48 44.21,-171.08 117.82,-220.13l2381.25 -1587.5c81.15,-54.13 185.55,-59.21 271.62,-13.12 86.02,46.04 139.73,135.7 139.73,233.26l0 529.17 3069.16 -0.01c146.1,0 264.58,118.48 264.58,264.58l0 1587.5c0,146.1 -118.48,264.58 -264.58,264.58l-3069.17 0 0 529.17c0,97.58 -53.71,187.22 -139.73,233.26 -85.8,45.96 -190.24,41.12 -271.62,-13.12l-2381.25 -1587.5c-73.61,-49.05 -117.82,-131.66 -117.82,-220.13l0.01 -0.01zm2381.25 1093.13l0 -299.38c0,-146.1 118.48,-264.58 264.58,-264.58l3069.17 0 0 -1058.33 -3069.17 -0.01c-146.1,0 -264.58,-118.48 -264.58,-264.58l0 -299.35 -1639.7 1093.1 1639.7 1093.13z"/>
  <path class="fil2" d="M9616.67 6706.25l0 1587.5c0,146.1 118.48,264.58 264.58,264.58 146.1,0 264.58,-118.48 264.58,-264.58l0 -1587.5c0,-146.1 -118.48,-264.58 -264.58,-264.58 -146.1,0 -264.58,118.48 -264.58,264.58z"/>
  <circle class="fil2" cx="14008.75" cy="7500" r="264.58"/>
  <path class="fil2" d="M14273.33 993.63c1.4,-146.34 -117.45,-267.23 -265.17,-266.96l-8095.66 0c-146.1,0 -264.58,118.48 -264.58,264.58l0 4127.5c0,146.1 118.48,264.58 264.58,264.58 146.1,0 264.58,-118.48 264.58,-264.58l0 -3862.92 6508.78 0 -4493.87 1872.46c-98.58,41.09 -162.82,137.4 -162.82,244.21l0 8255c0,106.81 64.24,203.15 162.82,244.21l4493.87 1872.46 -6508.78 0 0 -3862.92c0,-146.1 -118.48,-264.58 -264.58,-264.58 -146.1,0 -264.58,118.48 -264.58,264.58l0 4127.5c0,146.1 118.48,264.58 264.58,264.58l8094.56 0c151.61,0 267.65,-123.08 266.28,-266.96l0 -5315.74c0,-146.1 -118.48,-264.58 -264.58,-264.58 -146.1,0 -264.58,118.48 -264.58,264.58l0 4921.25 -5185.83 -2160.77 0 -7902.2 5185.83 -2160.77 0 4921.25c0,146.1 118.48,264.58 264.58,264.58 146.1,0 264.58,-118.48 264.58,-264.58l-0.01 -5315.76z"/>
 </g>
</svg>
