<svg id="Capa_1" enable-background="new 0 0 512 512" height="512" viewBox="0 0 512 512" width="512" xmlns="http://www.w3.org/2000/svg"><g><g><path d="m332.848 285.417h-153.696v-101.957c0-42.359 34.339-76.698 76.698-76.698h.3c42.359 0 76.698 34.339 76.698 76.698z" fill="#d1aee5"/><path d="m256 416.857h-153.696v-101.957c0-42.359 34.339-76.698 76.698-76.698h.3c42.359 0 76.698 34.339 76.698 76.698z" fill="#a0e5a5"/><path d="m409.696 416.857h-153.696v-101.957c0-42.359 34.339-76.698 76.698-76.698h.3c42.359 0 76.698 34.339 76.698 76.698z" fill="#66e0f7"/><circle cx="256" cy="321.931" fill="#ffdfe5" r="48.192"/><path d="m486.544 501.98h-153.696v-55.159c0-42.359 34.339-76.698 76.698-76.698h.3c42.359 0 76.698 34.339 76.698 76.698z" fill="#fff2a0"/><circle cx="409.696" cy="321.931" fill="#ffdfe5" r="48.192"/><path d="m179.152 501.98h-153.696v-55.159c0-42.359 34.339-76.698 76.698-76.698h.3c42.359 0 76.698 34.339 76.698 76.698z" fill="#ff5d7d"/><path d="m332.848 503.24h-153.696v-56.419c0-42.359 34.339-76.698 76.698-76.698h.3c42.359 0 76.698 34.339 76.698 76.698z" fill="#ffa96b"/><g fill="#ffdfe5"><circle cx="102.304" cy="321.931" r="48.192"/><circle cx="179.152" cy="190.074" r="48.192"/><circle cx="256" cy="58.212" r="48.192"/><circle cx="332.848" cy="190.074" r="48.192"/></g></g><g><circle cx="256" cy="501.98" r="10"/><path d="m445.459 367.811c13.649-10.663 22.449-27.258 22.449-45.881 0-32.098-26.113-58.211-58.212-58.211-3.343 0-6.615.299-9.806.842-2.578-3.79-5.431-7.363-8.537-10.66-6.894-7.315-14.805-13.17-23.396-17.434 14.024-10.639 23.102-27.474 23.102-46.394 0-32.099-26.113-58.212-58.211-58.212-2.215 0-4.398.136-6.549.378-2.688-3.7-5.654-7.189-8.876-10.413-7.528-7.534-16.208-13.492-25.632-17.757 13.633-10.663 22.421-27.249 22.421-45.858 0-32.097-26.113-58.211-58.212-58.211-32.098 0-58.212 26.114-58.212 58.212 0 18.591 8.77 35.161 22.38 45.826-13.585 6.126-25.472 15.75-34.476 28.201-2.148-.241-4.328-.377-6.539-.377-32.098 0-58.212 26.114-58.212 58.212 0 18.906 9.065 35.729 23.071 46.369-12.586 6.222-23.578 15.804-31.912 28.116-3.187-.543-6.456-.841-9.795-.841-32.098 0-58.212 26.113-58.212 58.211 0 18.623 8.8 35.218 22.449 45.881-30.11 13.657-51.104 44.003-51.104 79.16v55.009c0 5.533 4.486 10.02 10.02 10.02h185.631c5.534 0 10.02-4.486 10.02-10.02s-4.486-10.02-10.02-10.02h-21.915v-44.989c0-36.849 29.979-66.829 66.828-66.829s66.829 29.979 66.829 66.829v44.989h-21.916c-5.533 0-10.02 4.486-10.02 10.02s4.485 10.021 10.018 10.021h185.631c5.533 0 10.02-4.486 10.02-10.02v-55.009c0-35.157-20.995-65.503-51.105-79.16zm2.41-45.88c0 21.049-17.124 38.173-38.173 38.173-21.048 0-38.172-17.124-38.172-38.173 0-21.048 17.124-38.172 38.172-38.172 21.049-.001 38.173 17.124 38.173 38.172zm-76.848-131.857c0 21.048-17.124 38.172-38.172 38.172-21.049 0-38.173-17.124-38.173-38.172 0-21.049 17.124-38.173 38.173-38.173 21.047 0 38.172 17.124 38.172 38.173zm-153.194-131.862c0-21.049 17.124-38.173 38.173-38.173s38.173 17.124 38.173 38.173c0 21.035-17.103 38.15-38.134 38.171-.013 0-.026-.001-.039-.001-.016 0-.032.001-.047.001-21.027-.025-38.126-17.139-38.126-38.171zm38.126 58.21c.016 0 .031.001.047.001.013 0 .026-.001.039-.001 17.842.01 34.607 6.958 47.209 19.571.843.844 1.657 1.717 2.456 2.606-18.458 9.773-31.068 29.174-31.068 51.474 0 18.916 9.074 35.747 23.093 46.386-12.584 6.227-23.597 15.813-31.932 28.099-3.187-.543-6.457-.841-9.797-.841-3.339 0-6.609.298-9.796.841-2.573-3.781-5.434-7.353-8.546-10.655-6.891-7.318-14.801-13.175-23.394-17.439 14.022-10.639 23.099-27.473 23.099-46.391 0-22.311-12.622-41.719-31.094-51.487 12.54-14.037 30.384-22.15 49.684-22.164zm.047 243.682c-21.048 0-38.173-17.124-38.173-38.173 0-21.048 17.124-38.172 38.173-38.172s38.173 17.124 38.173 38.172-17.124 38.173-38.173 38.173zm-76.848-208.203c21.048 0 38.173 17.124 38.173 38.173 0 21.048-17.124 38.172-38.173 38.172s-38.173-17.124-38.173-38.172c0-21.049 17.124-38.173 38.173-38.173zm-115.021 170.03c0-21.048 17.124-38.172 38.173-38.172s38.173 17.124 38.173 38.172c0 21.049-17.124 38.173-38.173 38.173s-38.173-17.125-38.173-38.173zm-28.655 125.041c0-36.849 29.979-66.829 66.828-66.829s66.829 29.979 66.829 66.829v44.989h-133.657zm143.676-40.464c-8.998-17.02-23.481-30.712-41.085-38.697 13.648-10.663 22.448-27.258 22.448-45.881 0-21.384-11.598-40.1-28.827-50.22 11.767-14.821 28.913-23.425 47.468-23.425 16.563 0 32.158 6.875 43.916 19.36 1.228 1.303 2.388 2.677 3.512 4.083-17.212 10.124-28.796 28.83-28.796 50.202 0 18.623 8.8 35.218 22.449 45.881-17.604 7.985-32.087 21.677-41.085 38.697zm112.612-38.697c13.649-10.663 22.449-27.258 22.449-45.881 0-21.381-11.595-40.095-28.82-50.216 11.789-14.806 28.991-23.429 47.451-23.429 16.561 0 32.16 6.876 43.927 19.36 1.226 1.301 2.383 2.677 3.506 4.085-17.209 10.125-28.792 28.83-28.792 50.199 0 18.623 8.8 35.218 22.448 45.881-17.604 7.985-32.086 21.677-41.084 38.697-8.999-17.019-23.481-30.711-41.085-38.696zm184.76 124.15h-133.656v-44.989c0-36.849 29.979-66.829 66.829-66.829s66.828 29.979 66.828 66.829v44.989z"/></g></g></svg>