<?xml version="1.0" encoding="UTF-8" standalone="no"?>
<!-- Created with Inkscape (http://www.inkscape.org/) -->

<svg
   width="666"
   height="100"
   viewBox="0 0 176.2125 26.458333"
   version="1.1"
   id="svg5"
   inkscape:version="1.1 (c68e22c387, 2021-05-23)"
   sodipodi:docname="BoletoHeader.svg"
   xmlns:inkscape="http://www.inkscape.org/namespaces/inkscape"
   xmlns:sodipodi="http://sodipodi.sourceforge.net/DTD/sodipodi-0.dtd"
   xmlns="http://www.w3.org/2000/svg"
   xmlns:svg="http://www.w3.org/2000/svg">
  <sodipodi:namedview
     id="namedview7"
     pagecolor="#ffffff"
     bordercolor="#999999"
     borderopacity="1"
     inkscape:pageshadow="0"
     inkscape:pageopacity="0"
     inkscape:pagecheckerboard="0"
     inkscape:document-units="mm"
     showgrid="false"
     units="px"
     inkscape:zoom="1.0156586"
     inkscape:cx="498.69119"
     inkscape:cy="65.474757"
     inkscape:window-width="1920"
     inkscape:window-height="1017"
     inkscape:window-x="-8"
     inkscape:window-y="-8"
     inkscape:window-maximized="1"
     inkscape:current-layer="text2341-8" />
  <defs
     id="defs2" />
  <g
     inkscape:label="Layer 1"
     inkscape:groupmode="layer"
     id="layer1">
    <path
       class="fil0"
       d="m 45.937162,18.109425 c 1.927752,-0.608609 2.780582,2.26257 0.894497,2.864712 -1.858237,0.593291 -2.843695,-2.249316 -0.894497,-2.864712 z M 20.161107,16.670681 c 1.829666,-0.707151 2.81095,2.149368 0.981034,2.82309 -1.768752,0.651207 -3.026597,-2.03249 -0.981034,-2.82309 z m 6.175677,-5.034642 c 0.797817,-0.210518 1.933494,0.15807 2.560872,0.491368 0.869533,0.461888 0.565149,1.563295 -0.429638,1.785886 -0.949601,0.21247 -1.822175,-0.113137 -2.493264,-0.526158 -0.849312,-0.522688 -0.603502,-1.496322 0.36203,-1.751096 z M 30.855093,7.6996276 C 31.094501,7.334171 31.72238,6.0682489 31.892478,5.6433546 30.713863,4.7031942 28.286482,4.1639409 26.608715,4.982433 c -0.702318,0.342625 -1.369321,0.9689823 -1.691884,1.7098799 -0.467198,1.0730848 -0.280533,1.7082479 0.06254,2.6956809 -0.760643,0.601461 -2.148097,1.0559042 -2.233885,3.1883872 -0.156186,3.881671 5.550385,3.505843 5.028651,5.639211 -0.175249,0.716616 -0.9693,0.929788 -1.826169,0.887349 -0.846134,-0.0419 -1.311403,-0.478909 -1.950243,-0.692422 -0.04253,-1.346762 -0.43808,-2.555811 -1.638619,-3.212216 -1.859942,-1.016915 -3.999189,-0.312646 -4.816956,1.530907 -1.200675,2.70687 1.509872,5.524967 4.187511,4.532449 1.165635,-0.432065 0.511159,-0.704291 1.619579,-0.18376 2.100778,0.986593 5.920766,0.925702 7.10106,-1.428964 0.628308,-1.253531 0.512361,-2.717149 -0.235869,-3.653746 0.592361,-0.442687 1.005364,-0.444457 1.357248,-1.066253 0.190932,0.50401 -0.606886,5.554515 -0.462977,6.286993 l 3.460272,-0.01748 0.661376,-8.082933 c 0.01868,-0.237299 0.01162,-0.937369 0.181991,-1.048437 l 3.144699,9.061332 h 2.029017 c 0.261853,-0.181331 0.730821,-1.839264 0.879836,-2.258915 0.270886,-0.762686 0.518942,-1.510506 0.787014,-2.265248 0.272907,-0.768383 1.451704,-4.014097 1.564589,-4.545726 0.108003,0.116649 0.06543,0.03501 0.12952,0.225317 l 0.244355,2.999155 c 0.02433,0.308606 0.169351,1.344629 0.09288,1.557076 -0.0692,0.192249 -1.833296,1.484158 -1.097504,3.750995 0.928063,2.85931 4.862409,3.118554 6.213189,0.455759 0.65813,-1.297401 0.346642,-2.864236 -0.623611,-3.895107 -0.289384,-0.307448 -0.625722,-0.45138 -1.016915,-0.715049 L 46.806937,5.7666496 43.152691,5.7635849 C 42.86299,5.9335483 42.76,6.526566 42.632455,6.8552109 l -2.989376,7.6924221 c -0.0038,-0.01009 -0.01784,0.02776 -0.05179,0.04966 L 36.216801,5.7695585 c -0.608792,-0.018541 -3.388466,-0.096767 -3.772373,0.050158 l -0.502079,5.6034665 -0.259834,-0.279782 c -0.07764,-0.105603 -0.0901,-0.138008 -0.175659,-0.238977 -0.268345,-0.316799 -1.039926,-0.853739 -1.424425,-1.0687732 -1.142098,-0.638749 -3.203728,-1.048097 -2.844898,-2.2092596 0.12196,-0.3946424 0.520712,-0.620048 0.999507,-0.6790324 1.08493,-0.1336497 1.894413,0.4098929 2.61804,0.7522688 z"
       id="path30"
       style="clip-rule:evenodd;fill:#000000;fill-rule:evenodd;stroke-width:0.00226949;image-rendering:optimizeQuality;shape-rendering:geometricPrecision;text-rendering:geometricPrecision" />
    <ellipse
       class="fil1"
       cx="46.4114"
       cy="19.512285"
       rx="1.0486642"
       ry="1.0982754"
       id="ellipse32"
       style="clip-rule:evenodd;fill:#325d88;fill-rule:evenodd;stroke-width:0.00226949;image-rendering:optimizeQuality;shape-rendering:geometricPrecision;text-rendering:geometricPrecision" />
    <ellipse
       class="fil2"
       cx="20.609573"
       cy="18.072203"
       rx="1.0486642"
       ry="1.0982754"
       id="ellipse34"
       style="clip-rule:evenodd;fill:#93c54b;fill-rule:evenodd;stroke-width:0.00226949;image-rendering:optimizeQuality;shape-rendering:geometricPrecision;text-rendering:geometricPrecision" />
    <g
       aria-label="Stock Sales Manager"
       id="text2341"
       style="font-size:10.5833px;line-height:1.25;font-family:Georgia;-inkscape-font-specification:'Georgia, Normal';stroke-width:0.264583">
      <path
         d="m 65.881141,9.6692431 q 0.232543,0.2583813 0.341063,0.5684389 0.113688,0.30489 0.113688,0.713133 0,0.971513 -0.7183,1.601964 -0.7183,0.63045 -1.782831,0.63045 -0.490925,0 -0.98185,-0.149861 -0.490924,-0.155029 -0.84749,-0.372069 l -0.222208,0.377237 h -0.41341 l -0.07235,-2.511467 h 0.418578 q 0.12919,0.465087 0.299722,0.842323 0.175699,0.372069 0.459919,0.69763 0.268716,0.30489 0.625283,0.485757 0.361733,0.180867 0.837155,0.180867 0.356566,0 0.620115,-0.09302 0.268717,-0.09302 0.434081,-0.263548 0.165364,-0.170532 0.242878,-0.397908 0.08268,-0.232543 0.08268,-0.532265 0,-0.439249 -0.248046,-0.816485 -0.248046,-0.382405 -0.73897,-0.578775 Q 63.994957,9.9172892 63.560876,9.7570927 63.126796,9.5917287 62.81157,9.4470351 62.191455,9.1679833 61.845224,8.7183998 61.504161,8.2636486 61.504161,7.5350132 q 0,-0.4185777 0.170532,-0.7803116 0.170531,-0.3617339 0.485757,-0.6459534 0.299722,-0.2687166 0.707964,-0.4185777 0.408243,-0.1550288 0.852659,-0.1550288 0.506427,0 0.904334,0.1550288 0.403075,0.1550288 0.733803,0.3617338 l 0.211873,-0.3513986 h 0.41341 l 0.04134,2.4339522 H 65.607257 Q 65.493569,7.7158802 65.348875,7.3334758 65.209349,6.9510714 64.981974,6.6410138 64.759766,6.3412914 64.439373,6.1655921 64.11898,5.9847252 63.653894,5.9847252 q -0.490925,0 -0.837156,0.3152252 -0.346231,0.3152253 -0.346231,0.7699764 0,0.4754217 0.222208,0.7906469 0.222208,0.3100576 0.645953,0.5115951 0.377237,0.1808669 0.738971,0.3152252 0.366902,0.1291907 0.707965,0.2790518 0.310058,0.1343583 0.594277,0.30489 0.289387,0.1705317 0.50126,0.3979073 z"
         id="path6176" />
      <path
         d="m 70.268456,12.81116 q -0.335896,0.139526 -0.635618,0.232543 -0.299723,0.09818 -0.733803,0.09818 -0.640786,0 -0.904335,-0.320393 -0.258381,-0.32556 -0.258381,-0.91467 V 8.4548508 H 66.816481 V 7.9587586 h 0.940508 V 6.3722972 h 0.940508 v 1.5864614 h 1.462439 v 0.4960922 h -1.452104 v 2.8473622 q 0,0.320393 0.02067,0.537433 0.02584,0.211873 0.113688,0.372069 0.08268,0.149862 0.248046,0.227376 0.165364,0.07751 0.444416,0.07751 0.12919,0 0.377236,-0.02067 0.253214,-0.02584 0.356567,-0.06201 z"
         id="path6178" />
      <path
         d="m 75.740972,10.434052 q 0,0.537433 -0.170531,1.059363 -0.170532,0.516763 -0.485757,0.878497 -0.356566,0.41341 -0.826821,0.614947 -0.470254,0.201538 -1.054195,0.201538 -0.485757,0 -0.925006,-0.180867 -0.439248,-0.186035 -0.780311,-0.537433 -0.335896,-0.346231 -0.537433,-0.842323 -0.19637,-0.50126 -0.19637,-1.121375 0,-1.1937222 0.692462,-1.9533633 0.697629,-0.7596411 1.824172,-0.7596411 1.069699,0 1.762161,0.7234677 0.697629,0.7183001 0.697629,1.9171897 z m -1.069698,0.01034 q 0,-0.387572 -0.07751,-0.8164849 Q 74.516245,9.1938214 74.361216,8.8940991 74.195852,8.5737062 73.927135,8.382504 73.658419,8.1861342 73.270847,8.1861342 q -0.397907,0 -0.682127,0.1963698 -0.279052,0.1963698 -0.454751,0.5374332 -0.165364,0.3152252 -0.232543,0.7183001 -0.06718,0.4030747 -0.06718,0.7803117 0,0.496092 0.07751,0.919838 0.08268,0.418577 0.258381,0.749305 0.1757,0.330729 0.439249,0.521931 0.268716,0.186034 0.661456,0.186034 0.645953,0 1.02319,-0.625283 0.377237,-0.625282 0.377237,-1.725987 z"
         id="path6180" />
      <path
         d="m 78.836381,13.167726 q -1.105872,0 -1.731155,-0.733803 -0.625283,-0.733803 -0.625283,-1.968865 0,-0.5374336 0.165364,-1.00252 0.170532,-0.470254 0.490925,-0.8526584 0.30489,-0.3669015 0.764808,-0.5891095 0.459919,-0.2273755 1.00252,-0.2273755 0.749306,0 1.21956,0.3617338 0.470254,0.3565663 0.470254,0.9766815 0,0.2583813 -0.124023,0.4599188 -0.124023,0.1963698 -0.408243,0.1963698 -0.30489,0 -0.475421,-0.1550288 -0.165364,-0.1550288 -0.165364,-0.346231 0,-0.2325432 0.06201,-0.4754217 0.06201,-0.2480461 0.07235,-0.3617338 -0.09302,-0.1601965 -0.279052,-0.2118727 -0.180867,-0.056844 -0.39274,-0.056844 -0.248046,0 -0.475421,0.1085201 -0.222208,0.1033526 -0.434081,0.387572 -0.191202,0.2583814 -0.310057,0.6976297 -0.118856,0.4392482 -0.118856,1.0490286 0,0.961178 0.423746,1.570958 0.428913,0.604612 1.121375,0.604612 0.501259,0 0.837155,-0.242878 0.341063,-0.242878 0.630451,-0.728635 l 0.330728,0.21704 q -0.341064,0.60978 -0.899167,0.966346 -0.558104,0.356566 -1.152381,0.356566 z"
         id="path6182" />
      <path
         d="M 86.686006,13.033368 H 85.146053 Q 84.742978,12.449426 84.28306,11.782802 83.823141,11.116179 83.327049,10.485728 l -0.423746,0.397907 v 1.209225 q 0,0.186035 0.06718,0.310058 0.06718,0.118855 0.217041,0.175699 0.124023,0.05168 0.23771,0.07751 0.113688,0.02584 0.263549,0.03617 v 0.341063 h -2.501131 v -0.341063 q 0.118855,-0.01034 0.248046,-0.02067 0.129191,-0.0155 0.21704,-0.04134 0.144694,-0.04651 0.217041,-0.160196 0.07235,-0.118856 0.07235,-0.30489 V 6.2431065 q 0,-0.1912022 -0.08268,-0.3565662 -0.07752,-0.1705317 -0.206706,-0.2583814 -0.10852,-0.082682 -0.341063,-0.1085201 -0.227375,-0.025838 -0.366901,-0.036173 V 5.1527373 l 1.886183,-0.1188554 0.07235,0.077514 v 5.3898347 q 0.403075,-0.403075 0.868161,-0.8629937 0.470255,-0.4650864 0.790647,-0.8268203 0.04134,-0.046509 0.08785,-0.1188554 0.05168,-0.077514 0.05168,-0.124023 0,-0.1395259 -0.227375,-0.2067051 -0.222208,-0.067179 -0.428913,-0.093017 V 7.9380881 h 2.24275 V 8.258481 q -0.434081,0.1291906 -0.769977,0.3255605 -0.330728,0.1912021 -0.506427,0.346231 -0.124023,0.1033525 -0.351399,0.3358957 -0.227375,0.2325432 -0.635618,0.60978 0.423746,0.5219298 0.950844,1.2505658 0.532265,0.728635 0.775144,1.054196 0.227375,0.30489 0.408242,0.397907 0.180867,0.09302 0.527098,0.113688 z"
         id="path6184" />
      <path
         d="m 94.204904,9.6692431 q 0.232543,0.2583813 0.341063,0.5684389 0.113688,0.30489 0.113688,0.713133 0,0.971513 -0.7183,1.601964 -0.7183,0.63045 -1.782832,0.63045 -0.490924,0 -0.981849,-0.149861 -0.490924,-0.155029 -0.84749,-0.372069 l -0.222208,0.377237 h -0.413411 l -0.07235,-2.511467 h 0.418577 q 0.129191,0.465087 0.299723,0.842323 0.175699,0.372069 0.459919,0.69763 0.268716,0.30489 0.625282,0.485757 0.361734,0.180867 0.837156,0.180867 0.356566,0 0.620115,-0.09302 0.268717,-0.09302 0.434081,-0.263548 0.165364,-0.170532 0.242878,-0.397908 0.08268,-0.232543 0.08268,-0.532265 0,-0.439249 -0.248046,-0.816485 Q 93.14554,10.248017 92.654616,10.051647 92.31872,9.9172892 91.884639,9.7570927 91.450559,9.5917287 91.135333,9.4470351 90.515218,9.1679833 90.168987,8.7183998 89.827924,8.2636486 89.827924,7.5350132 q 0,-0.4185777 0.170531,-0.7803116 0.170532,-0.3617339 0.485757,-0.6459534 0.299723,-0.2687166 0.707965,-0.4185777 0.408243,-0.1550288 0.852659,-0.1550288 0.506427,0 0.904334,0.1550288 0.403075,0.1550288 0.733803,0.3617338 l 0.211873,-0.3513986 h 0.41341 l 0.04134,2.4339522 H 93.931019 Q 93.817332,7.7158802 93.672638,7.3334758 93.533112,6.9510714 93.305737,6.6410138 93.083529,6.3412914 92.763136,6.1655921 92.442743,5.9847252 91.977657,5.9847252 q -0.490925,0 -0.837156,0.3152252 -0.346231,0.3152253 -0.346231,0.7699764 0,0.4754217 0.222208,0.7906469 0.222208,0.3100576 0.645953,0.5115951 0.377237,0.1808669 0.738971,0.3152252 0.366901,0.1291907 0.707965,0.2790518 0.310057,0.1343583 0.594277,0.30489 0.289387,0.1705317 0.50126,0.3979073 z"
         id="path6186" />
      <path
         d="m 100.2717,12.940351 q -0.24288,0.08785 -0.428918,0.139526 -0.180867,0.05684 -0.41341,0.05684 -0.403075,0 -0.645953,-0.186035 -0.237711,-0.191202 -0.30489,-0.552936 h -0.03101 q -0.335896,0.372069 -0.723468,0.568439 -0.382404,0.19637 -0.925005,0.19637 -0.573606,0 -0.945675,-0.351399 -0.366902,-0.351398 -0.366902,-0.919837 0,-0.294555 0.08268,-0.527098 0.08268,-0.232544 0.248046,-0.418578 0.129191,-0.155029 0.341064,-0.273884 0.211872,-0.124023 0.397907,-0.19637 0.232543,-0.08785 0.940508,-0.325561 0.713132,-0.2377105 0.961178,-0.3720688 v -0.511595 q 0,-0.067179 -0.03101,-0.2583813 Q 98.401015,8.8165847 98.307997,8.646053 98.204645,8.4548508 98.013443,8.3153249 97.827408,8.1706313 97.481177,8.1706313 q -0.237711,0 -0.444416,0.082682 -0.201537,0.077514 -0.284219,0.1653641 0,0.1033525 0.04651,0.30489 0.05168,0.2015374 0.05168,0.3720691 0,0.1808669 -0.165365,0.3307281 -0.160196,0.1498612 -0.449583,0.1498612 -0.258381,0 -0.382404,-0.1808669 -0.118856,-0.1860346 -0.118856,-0.4134102 0,-0.2377108 0.165364,-0.4547511 0.170532,-0.2170404 0.439248,-0.387572 0.232544,-0.1446936 0.563272,-0.2428785 0.330728,-0.1033525 0.645953,-0.1033525 0.434081,0 0.754474,0.062011 0.32556,0.056844 0.589109,0.2532137 0.263549,0.1912022 0.397907,0.5219303 0.139526,0.3255605 0.139526,0.8423232 0,0.7389707 -0.0155,1.3125767 -0.0155,0.568439 -0.0155,1.245399 0,0.201537 0.06718,0.320392 0.07235,0.118856 0.21704,0.201538 0.07751,0.04651 0.242878,0.05168 0.170536,0.0052 0.346236,0.0052 z m -1.803506,-2.728507 q -0.439249,0.129191 -0.769977,0.253214 -0.330728,0.124023 -0.614947,0.310057 -0.258382,0.1757 -0.408243,0.418578 -0.149861,0.237711 -0.149861,0.568439 0,0.428913 0.222208,0.63045 0.227376,0.201538 0.573607,0.201538 0.366901,0 0.645953,-0.175699 0.279052,-0.180867 0.470254,-0.423746 z"
         id="path6188" />
      <path
         d="m 103.16557,13.033368 h -2.48563 v -0.341063 q 0.11886,-0.01034 0.25321,-0.02067 0.13436,-0.0155 0.22221,-0.04134 0.14469,-0.04651 0.21704,-0.160196 0.0724,-0.118856 0.0724,-0.30489 v -5.90143 q 0,-0.1860345 -0.0827,-0.346231 -0.0775,-0.165364 -0.20671,-0.2583813 -0.093,-0.062011 -0.34106,-0.1136878 -0.24805,-0.051676 -0.39791,-0.062011 V 5.1527373 l 1.91719,-0.1188554 0.0724,0.077514 v 6.9917987 q 0,0.180867 0.0672,0.299723 0.0672,0.113687 0.21704,0.175699 0.11368,0.05168 0.2222,0.07751 0.11369,0.02584 0.25322,0.03617 z"
         id="path6190" />
      <path
         d="m 108.33319,11.834479 q -0.32039,0.60978 -0.85782,0.971514 -0.53743,0.361733 -1.23506,0.361733 -0.61495,0 -1.08004,-0.21704 -0.45992,-0.21704 -0.75964,-0.589109 -0.29972,-0.372069 -0.44958,-0.868162 -0.1447,-0.496092 -0.1447,-1.049028 0,-0.4960921 0.15503,-0.9715137 0.1602,-0.4805893 0.46509,-0.8629937 0.29455,-0.3669015 0.72863,-0.5891095 0.43925,-0.2273755 0.98185,-0.2273755 0.55811,0 0.95601,0.1756993 0.39791,0.1756993 0.64596,0.4805893 0.23771,0.2893871 0.3514,0.6821267 0.11885,0.3927396 0.11885,0.8526584 v 0.3410637 h -3.37446 q 0,0.501259 0.093,0.909502 0.0982,0.408243 0.30489,0.7183 0.20154,0.299722 0.5271,0.475422 0.32556,0.170531 0.77514,0.170531 0.45992,0 0.79065,-0.211872 0.33589,-0.217041 0.64595,-0.775144 z m -1.14204,-1.943028 q 0,-0.2893871 -0.0517,-0.6201152 -0.0465,-0.3307281 -0.15503,-0.552936 -0.11885,-0.2377109 -0.32556,-0.3875721 -0.2067,-0.1498611 -0.53226,-0.1498611 -0.5426,0 -0.90434,0.4547511 -0.35656,0.4495836 -0.38757,1.2557333 z"
         id="path6192" />
      <path
         d="m 112.28643,10.537404 q 0.21187,0.186035 0.32556,0.428913 0.11369,0.242879 0.11369,0.594277 0,0.707965 -0.53227,1.157549 -0.5271,0.449583 -1.36942,0.449583 -0.44441,0 -0.82165,-0.160196 -0.37207,-0.160196 -0.53227,-0.294555 l -0.10335,0.335896 h -0.38757 l -0.0517,-1.772496 h 0.35657 q 0.0413,0.201537 0.1757,0.470254 0.13436,0.268717 0.32556,0.485757 0.20154,0.227376 0.48059,0.382404 0.28422,0.155029 0.63562,0.155029 0.49609,0 0.7648,-0.222208 0.26872,-0.227375 0.26872,-0.645953 0,-0.21704 -0.0879,-0.372069 -0.0827,-0.160197 -0.24804,-0.279052 -0.17054,-0.118856 -0.41858,-0.211873 -0.24805,-0.09819 -0.55294,-0.191202 -0.24288,-0.07235 -0.5426,-0.19637 -0.29455,-0.129191 -0.50643,-0.299722 -0.22737,-0.180867 -0.37207,-0.4444161 -0.14469,-0.263549 -0.14469,-0.6201152 0,-0.6252828 0.46509,-1.0593635 0.46508,-0.4340806 1.2454,-0.4340806 0.29972,0 0.60978,0.077514 0.31522,0.077514 0.51159,0.1860345 l 0.11886,-0.2687166 h 0.37206 l 0.0775,1.6381377 h -0.35657 q -0.10852,-0.5477684 -0.47025,-0.8888318 -0.35657,-0.346231 -0.87333,-0.346231 -0.42375,0 -0.66662,0.2118727 -0.24288,0.2118727 -0.24288,0.5115951 0,0.2325432 0.0775,0.387572 0.0827,0.1550288 0.24288,0.2635489 0.15503,0.1033526 0.38757,0.1963699 0.23771,0.08785 0.58394,0.2015374 0.34107,0.1085202 0.64079,0.2532142 0.30489,0.144693 0.50126,0.320392 z"
         id="path6194" />
      <path
         d="m 125.00913,13.033368 h -3.24011 v -0.366901 q 0.1757,-0.0052 0.44959,-0.03617 0.27905,-0.03101 0.3824,-0.08785 0.1602,-0.09818 0.23254,-0.222208 0.0775,-0.129191 0.0775,-0.320393 V 6.6668519 h -0.0775 l -2.50113,6.2476611 h -0.25838 l -2.38227,-6.3768517 h -0.0672 v 4.3769797 q 0,0.635618 0.0775,0.966346 0.0827,0.330728 0.24805,0.475422 0.11369,0.10852 0.47025,0.206705 0.35657,0.09818 0.46509,0.103353 v 0.366901 h -2.96105 v -0.366901 q 0.23254,-0.02067 0.48575,-0.07752 0.25839,-0.05684 0.39791,-0.170531 0.18087,-0.144694 0.24805,-0.444416 0.0672,-0.299723 0.0672,-1.00252 V 7.219788 q 0,-0.3255605 -0.0775,-0.5322656 -0.0775,-0.206705 -0.22221,-0.3358957 -0.16019,-0.1395259 -0.39273,-0.2067051 -0.23255,-0.067179 -0.45992,-0.077514 V 5.7005057 h 2.50113 l 2.09805,5.4983553 1.79317,-4.5991882 q 0.0982,-0.2532137 0.16536,-0.527098 0.0724,-0.2790518 0.0775,-0.3720691 h 2.39261 v 0.3669015 q -0.14469,0.00517 -0.37207,0.046509 -0.22221,0.041341 -0.32556,0.077514 -0.1757,0.062011 -0.23771,0.206705 -0.062,0.1446936 -0.062,0.3152253 v 5.2864824 q 0,0.180867 0.062,0.30489 0.062,0.124023 0.23771,0.21704 0.093,0.05168 0.33073,0.09819 0.23771,0.04134 0.37724,0.04651 z"
         id="path6196" />
      <path
         d="m 130.68835,12.940351 q -0.24288,0.08785 -0.42891,0.139526 -0.18087,0.05684 -0.41342,0.05684 -0.40307,0 -0.64595,-0.186035 -0.23771,-0.191202 -0.30489,-0.552936 h -0.031 q -0.3359,0.372069 -0.72347,0.568439 -0.38241,0.19637 -0.92501,0.19637 -0.5736,0 -0.94567,-0.351399 -0.3669,-0.351398 -0.3669,-0.919837 0,-0.294555 0.0827,-0.527098 0.0827,-0.232544 0.24804,-0.418578 0.12919,-0.155029 0.34107,-0.273884 0.21187,-0.124023 0.3979,-0.19637 0.23255,-0.08785 0.94051,-0.325561 0.71314,-0.2377105 0.96118,-0.3720688 v -0.511595 q 0,-0.067179 -0.031,-0.2583813 -0.0258,-0.1912022 -0.11886,-0.3617339 -0.10335,-0.1912022 -0.29455,-0.3307281 -0.18604,-0.1446936 -0.53227,-0.1446936 -0.23771,0 -0.44442,0.082682 -0.20153,0.077514 -0.28422,0.1653641 0,0.1033525 0.0465,0.30489 0.0517,0.2015374 0.0517,0.3720691 0,0.1808669 -0.16536,0.3307281 -0.1602,0.1498612 -0.44959,0.1498612 -0.25838,0 -0.3824,-0.1808669 -0.11886,-0.1860346 -0.11886,-0.4134102 0,-0.2377108 0.16537,-0.4547511 0.17053,-0.2170404 0.43924,-0.387572 0.23255,-0.1446936 0.56328,-0.2428785 0.33072,-0.1033525 0.64595,-0.1033525 0.43408,0 0.75447,0.062011 0.32556,0.056844 0.58911,0.2532137 0.26355,0.1912022 0.39791,0.5219303 0.13952,0.3255605 0.13952,0.8423232 0,0.7389707 -0.0155,1.3125767 -0.0155,0.568439 -0.0155,1.245399 0,0.201537 0.0672,0.320392 0.0724,0.118856 0.21704,0.201538 0.0775,0.04651 0.24288,0.05168 0.17053,0.0052 0.34623,0.0052 z m -1.8035,-2.728507 q -0.43925,0.129191 -0.76998,0.253214 -0.33073,0.124023 -0.61495,0.310057 -0.25838,0.1757 -0.40824,0.418578 -0.14986,0.237711 -0.14986,0.568439 0,0.428913 0.22221,0.63045 0.22737,0.201538 0.5736,0.201538 0.3669,0 0.64596,-0.175699 0.27905,-0.180867 0.47025,-0.423746 z"
         id="path6198" />
      <path
         d="m 136.82232,13.033368 h -2.49596 v -0.341063 q 0.11885,-0.01034 0.25838,-0.02067 0.14469,-0.01033 0.23771,-0.04134 0.14469,-0.04651 0.21187,-0.160196 0.0724,-0.118856 0.0724,-0.30489 V 9.54522 q 0,-0.5426008 -0.25838,-0.8371555 -0.25321,-0.2945547 -0.62012,-0.2945547 -0.27388,0 -0.50126,0.08785 -0.22737,0.082682 -0.40307,0.2067051 -0.17053,0.1188554 -0.27388,0.2583813 -0.0982,0.1343583 -0.1447,0.2170404 v 2.9300448 q 0,0.175699 0.0724,0.289387 0.0724,0.113687 0.21704,0.175699 0.10852,0.05168 0.23254,0.07751 0.12919,0.02584 0.26355,0.03617 v 0.341063 h -2.49596 v -0.341063 q 0.11885,-0.01034 0.24288,-0.02067 0.12919,-0.01033 0.2222,-0.04134 0.1447,-0.04651 0.21188,-0.160196 0.0723,-0.118856 0.0723,-0.30489 V 9.0181221 q 0,-0.1756993 -0.0775,-0.3203929 -0.0724,-0.1498611 -0.20671,-0.2428784 -0.0982,-0.062012 -0.23254,-0.08785 -0.13436,-0.031006 -0.28939,-0.041341 V 7.9897644 l 1.69498,-0.1136878 0.0724,0.072347 v 0.7183001 h 0.0258 q 0.12402,-0.1240231 0.31006,-0.2945547 0.18603,-0.1756994 0.3514,-0.2842195 0.1912,-0.1240231 0.45475,-0.2067051 0.26355,-0.082682 0.59427,-0.082682 0.73381,0 1.08521,0.4599188 0.35656,0.4547511 0.35656,1.2143923 v 2.6509927 q 0,0.180867 0.062,0.294555 0.062,0.10852 0.21188,0.170531 0.12402,0.05168 0.21187,0.07235 0.093,0.02067 0.25321,0.03101 z"
         id="path6200" />
      <path
         d="m 142.27416,12.940351 q -0.24287,0.08785 -0.42891,0.139526 -0.18087,0.05684 -0.41341,0.05684 -0.40307,0 -0.64595,-0.186035 -0.23771,-0.191202 -0.30489,-0.552936 h -0.031 q -0.33589,0.372069 -0.72347,0.568439 -0.3824,0.19637 -0.925,0.19637 -0.57361,0 -0.94568,-0.351399 -0.3669,-0.351398 -0.3669,-0.919837 0,-0.294555 0.0827,-0.527098 0.0827,-0.232544 0.24805,-0.418578 0.12919,-0.155029 0.34106,-0.273884 0.21188,-0.124023 0.39791,-0.19637 0.23254,-0.08785 0.94051,-0.325561 0.71313,-0.2377105 0.96118,-0.3720688 v -0.511595 q 0,-0.067179 -0.031,-0.2583813 -0.0258,-0.1912022 -0.11885,-0.3617339 -0.10336,-0.1912022 -0.29456,-0.3307281 -0.18603,-0.1446936 -0.53226,-0.1446936 -0.23772,0 -0.44442,0.082682 -0.20154,0.077514 -0.28422,0.1653641 0,0.1033525 0.0465,0.30489 0.0517,0.2015374 0.0517,0.3720691 0,0.1808669 -0.16536,0.3307281 -0.1602,0.1498612 -0.44958,0.1498612 -0.25838,0 -0.38241,-0.1808669 -0.11885,-0.1860346 -0.11885,-0.4134102 0,-0.2377108 0.16536,-0.4547511 0.17053,-0.2170404 0.43925,-0.387572 0.23254,-0.1446936 0.56327,-0.2428785 0.33073,-0.1033525 0.64595,-0.1033525 0.43408,0 0.75448,0.062011 0.32556,0.056844 0.58911,0.2532137 0.26355,0.1912022 0.3979,0.5219303 0.13953,0.3255605 0.13953,0.8423232 0,0.7389707 -0.0155,1.3125767 -0.0155,0.568439 -0.0155,1.245399 0,0.201537 0.0672,0.320392 0.0724,0.118856 0.21704,0.201538 0.0775,0.04651 0.24288,0.05168 0.17053,0.0052 0.34623,0.0052 z m -1.8035,-2.728507 q -0.43925,0.129191 -0.76997,0.253214 -0.33073,0.124023 -0.61495,0.310057 -0.25838,0.1757 -0.40824,0.418578 -0.14987,0.237711 -0.14987,0.568439 0,0.428913 0.22221,0.63045 0.22738,0.201538 0.57361,0.201538 0.3669,0 0.64595,-0.175699 0.27905,-0.180867 0.47026,-0.423746 z"
         id="path6202" />
      <path
         d="m 147.14724,12.50627 q 0.2067,0.19637 0.32556,0.444416 0.11885,0.248046 0.11885,0.614948 0,0.366901 -0.16019,0.687294 -0.1602,0.325561 -0.48576,0.563271 -0.34623,0.242879 -0.82682,0.377237 -0.48059,0.134358 -1.18855,0.134358 -1.15755,0 -1.73116,-0.341063 -0.57361,-0.335896 -0.57361,-0.987017 0,-0.527098 0.41341,-0.831988 0.41341,-0.30489 1.0542,-0.330728 v -0.07235 q -0.15503,-0.04651 -0.32039,-0.113688 -0.16537,-0.07235 -0.28422,-0.165364 -0.13436,-0.10852 -0.21704,-0.253214 -0.0827,-0.149861 -0.0827,-0.366902 0,-0.273884 0.1912,-0.501259 0.19637,-0.232544 0.58911,-0.397908 v -0.07751 q -0.4961,-0.232543 -0.76998,-0.594277 -0.27388,-0.3669016 -0.27388,-0.8474909 0,-0.7234677 0.53743,-1.1885541 0.5426,-0.4650864 1.38492,-0.4650864 0.23255,0 0.45992,0.046509 0.23255,0.046509 0.47026,0.1188554 h 1.77766 v 0.4960922 h -1.19889 v 0.031006 q 0.1912,0.222208 0.28422,0.4909246 0.093,0.2687166 0.093,0.5270979 0,0.671792 -0.54777,1.136878 -0.5426,0.465086 -1.26607,0.465086 h -0.62528 q -0.11886,0.04134 -0.24805,0.149861 -0.12919,0.108521 -0.12919,0.294555 0,0.191202 0.10852,0.294555 0.10852,0.09819 0.26355,0.134358 0.14986,0.04134 0.34623,0.05168 0.20154,0.01033 0.41341,0.0155 0.22738,0.0052 0.62012,0.03101 0.3979,0.02584 0.56327,0.03101 0.23771,0.01033 0.47542,0.113688 0.24288,0.103352 0.43925,0.284219 z m -1.39526,-3.0230615 q 0,-0.6046123 -0.24805,-0.9611786 -0.24288,-0.3617338 -0.68729,-0.3617338 -0.24288,0 -0.41858,0.1033525 -0.17053,0.098185 -0.27905,0.2842195 -0.10335,0.1705317 -0.14986,0.4134101 -0.0413,0.2377108 -0.0413,0.4909246 0,0.5736062 0.24804,0.9353402 0.25322,0.361734 0.65112,0.361734 0.44442,0 0.68213,-0.356566 0.24288,-0.361734 0.24288,-0.9095025 z m 0.99218,4.2736275 q 0,-0.289387 -0.13436,-0.475422 -0.13435,-0.186034 -0.40824,-0.253214 -0.14469,-0.02067 -0.59428,-0.04651 -0.44958,-0.02584 -1.04386,-0.02584 -0.5581,0.10852 -0.79581,0.361734 -0.23254,0.258381 -0.23254,0.661456 0,0.180867 0.0775,0.346231 0.0775,0.165364 0.26872,0.30489 0.18086,0.134358 0.48575,0.21704 0.30489,0.08785 0.74414,0.08785 0.75964,0 1.19372,-0.294555 0.43925,-0.289387 0.43925,-0.883664 z"
         id="path6204" />
      <path
         d="m 152.69727,11.834479 q -0.32039,0.60978 -0.85782,0.971514 -0.53744,0.361733 -1.23507,0.361733 -0.61494,0 -1.08003,-0.21704 -0.45992,-0.21704 -0.75964,-0.589109 -0.29972,-0.372069 -0.44958,-0.868162 -0.1447,-0.496092 -0.1447,-1.049028 0,-0.4960921 0.15503,-0.9715137 0.1602,-0.4805893 0.46509,-0.8629937 0.29455,-0.3669015 0.72863,-0.5891095 0.43925,-0.2273755 0.98185,-0.2273755 0.55811,0 0.95601,0.1756993 0.39791,0.1756993 0.64596,0.4805893 0.23771,0.2893871 0.35139,0.6821267 0.11886,0.3927396 0.11886,0.8526584 v 0.3410637 h -3.37446 q 0,0.501259 0.093,0.909502 0.0982,0.408243 0.30489,0.7183 0.20153,0.299722 0.52709,0.475422 0.32557,0.170531 0.77515,0.170531 0.45992,0 0.79065,-0.211872 0.33589,-0.217041 0.64595,-0.775144 z m -1.14204,-1.943028 q 0,-0.2893871 -0.0517,-0.6201152 -0.0465,-0.3307281 -0.15503,-0.552936 -0.11885,-0.2377109 -0.32556,-0.3875721 -0.2067,-0.1498611 -0.53226,-0.1498611 -0.5426,0 -0.90434,0.4547511 -0.35656,0.4495836 -0.38757,1.2557333 z"
         id="path6206" />
      <path
         d="m 157.18793,8.5943767 q 0,0.263549 -0.12919,0.470254 -0.12919,0.2015375 -0.3979,0.2015375 -0.28939,0 -0.44442,-0.1498612 -0.14986,-0.1498612 -0.14986,-0.3307281 0,-0.1136878 0.0155,-0.2067051 0.0207,-0.093017 0.0362,-0.1860345 -0.24288,0 -0.56844,0.1963698 -0.32556,0.1963698 -0.55294,0.5581037 v 2.9662182 q 0,0.180866 0.0672,0.294554 0.0724,0.113688 0.22221,0.170532 0.12919,0.05168 0.33073,0.07751 0.2067,0.02584 0.35656,0.03617 v 0.341063 h -2.68716 v -0.341063 q 0.11885,-0.01034 0.24287,-0.02067 0.12919,-0.01033 0.22221,-0.04134 0.1447,-0.04651 0.21187,-0.160196 0.0724,-0.118856 0.0724,-0.30489 V 9.0181221 q 0,-0.1601964 -0.0775,-0.3152252 -0.0724,-0.1550288 -0.20671,-0.2480461 -0.0982,-0.062012 -0.23254,-0.08785 -0.13436,-0.031006 -0.28939,-0.041341 V 7.9897644 l 1.69498,-0.1136878 0.0724,0.072347 v 0.7183001 h 0.0258 q 0.32039,-0.4185778 0.71313,-0.6356181 0.39274,-0.2170403 0.7183,-0.2170403 0.32556,0 0.5271,0.2118727 0.2067,0.2118727 0.2067,0.5684389 z"
         id="path6208" />
    </g>
    <g
       aria-label="Pagamento de Boleto"
       id="text2341-8"
       style="font-size:6.83371px;line-height:1.25;font-family:Georgia;-inkscape-font-specification:'Georgia, Normal';stroke-width:0.170843">
      <path
         d="m 81.884607,17.820863 q 0,0.370382 -0.146818,0.657344 -0.143481,0.283626 -0.400413,0.470485 -0.253594,0.186859 -0.557241,0.273615 -0.303646,0.08676 -0.643997,0.08676 h -0.530547 v 1.434813 q 0,0.116787 0.0367,0.206879 0.04004,0.08676 0.160165,0.133471 0.06006,0.02336 0.210217,0.04338 0.153491,0.02002 0.280289,0.02336 v 0.236911 h -2.032095 v -0.236911 q 0.08008,-0.0067 0.230237,-0.02336 0.153492,-0.01668 0.213554,-0.04338 0.100103,-0.04338 0.143481,-0.126797 0.04671,-0.08342 0.04671,-0.213553 V 17.32702 q 0,-0.116787 -0.03337,-0.210216 -0.03337,-0.09343 -0.156828,-0.140145 -0.126797,-0.04338 -0.253595,-0.06006 -0.12346,-0.02002 -0.213553,-0.02669 v -0.236911 h 2.162228 q 0.660681,0 1.071104,0.320331 0.41376,0.316993 0.41376,0.84754 z m -1.014379,0.807499 q 0.113451,-0.160165 0.150155,-0.330341 0.0367,-0.173512 0.0367,-0.31032 0,-0.190196 -0.04671,-0.387065 -0.04338,-0.19687 -0.153492,-0.343688 -0.116787,-0.156828 -0.306983,-0.243584 -0.190196,-0.08676 -0.473822,-0.08676 h -0.470485 v 2.092156 h 0.340351 q 0.360372,0 0.583935,-0.110113 0.226901,-0.113451 0.340351,-0.280289 z"
         id="path9122" />
      <path
         d="m 85.45829,21.327811 q -0.156828,0.05673 -0.276952,0.09009 -0.116787,0.0367 -0.266942,0.0367 -0.260268,0 -0.417096,-0.120124 -0.153492,-0.12346 -0.19687,-0.357034 h -0.02002 q -0.216891,0.240247 -0.467149,0.367045 -0.246921,0.126797 -0.597282,0.126797 -0.370382,0 -0.610629,-0.226901 -0.236911,-0.2269 -0.236911,-0.593945 0,-0.190196 0.05339,-0.340351 0.05339,-0.150155 0.160165,-0.270278 0.08342,-0.100104 0.220227,-0.176849 0.136808,-0.08008 0.256932,-0.126798 0.150155,-0.05673 0.607293,-0.210216 0.460474,-0.153492 0.620639,-0.240248 v -0.33034 q 0,-0.04338 -0.02002,-0.166839 -0.01668,-0.123461 -0.07675,-0.233574 -0.06674,-0.123461 -0.190196,-0.213554 -0.120124,-0.09343 -0.343688,-0.09343 -0.153491,0 -0.286962,0.05339 -0.130134,0.05005 -0.183523,0.106777 0,0.06673 0.03003,0.196869 0.03337,0.130135 0.03337,0.240248 0,0.116787 -0.106777,0.213553 -0.10344,0.09677 -0.290299,0.09677 -0.166839,0 -0.246921,-0.116787 -0.07675,-0.120124 -0.07675,-0.266942 0,-0.153492 0.106777,-0.293636 0.110113,-0.140144 0.283625,-0.250258 0.150155,-0.09343 0.363709,-0.156828 0.213553,-0.06674 0.417096,-0.06674 0.280289,0 0.487169,0.04004 0.210217,0.0367 0.380392,0.163501 0.170175,0.123461 0.256932,0.337014 0.09009,0.210217 0.09009,0.543894 0,0.477159 -0.01001,0.847541 -0.01001,0.367045 -0.01001,0.804162 0,0.130134 0.04338,0.20688 0.04672,0.07674 0.140144,0.130134 0.05005,0.03003 0.156829,0.03337 0.110113,0.0033 0.223563,0.0033 z m -1.164533,-1.761816 q -0.283626,0.08342 -0.497179,0.163502 -0.213554,0.08008 -0.397076,0.200206 -0.166839,0.11345 -0.263605,0.270279 -0.09677,0.153491 -0.09677,0.367045 0,0.276952 0.143481,0.407086 0.146818,0.130134 0.370382,0.130134 0.236911,0 0.417097,-0.11345 0.180186,-0.116787 0.303646,-0.273616 z"
         id="path9124" />
      <path
         d="m 88.604867,21.047522 q 0.133471,0.126797 0.210217,0.286962 0.07675,0.160165 0.07675,0.397076 0,0.236911 -0.10344,0.443791 -0.10344,0.210217 -0.313657,0.363708 -0.223564,0.156829 -0.533883,0.243585 -0.31032,0.08676 -0.767458,0.08676 -0.747437,0 -1.117819,-0.220227 -0.370382,-0.21689 -0.370382,-0.637324 0,-0.340351 0.266942,-0.53722 0.266942,-0.19687 0.680702,-0.213554 v -0.04671 q -0.100104,-0.03003 -0.20688,-0.07341 -0.106777,-0.04671 -0.183523,-0.106777 -0.08676,-0.07007 -0.140144,-0.163502 -0.05339,-0.09677 -0.05339,-0.236911 0,-0.176849 0.123461,-0.323667 0.126797,-0.150155 0.380392,-0.256931 v -0.05005 q -0.32033,-0.150155 -0.497179,-0.383729 -0.176849,-0.236911 -0.176849,-0.54723 0,-0.467149 0.347024,-0.767458 0.350362,-0.30031 0.894255,-0.30031 0.150155,0 0.296973,0.03003 0.150155,0.03003 0.303647,0.07675 h 1.147849 v 0.32033 h -0.774131 v 0.02002 q 0.123461,0.143481 0.183523,0.316993 0.06006,0.173512 0.06006,0.340351 0,0.43378 -0.353697,0.73409 -0.350362,0.30031 -0.81751,0.30031 h -0.403749 q -0.07675,0.02669 -0.160165,0.09677 -0.08342,0.07007 -0.08342,0.190196 0,0.123461 0.07007,0.190196 0.07007,0.0634 0.170175,0.08676 0.09677,0.02669 0.223564,0.03337 0.130134,0.0067 0.266942,0.01001 0.146818,0.0033 0.400412,0.02002 0.256932,0.01668 0.363708,0.02002 0.153492,0.0067 0.306984,0.07341 0.156828,0.06674 0.283625,0.183523 z M 87.703939,19.09551 q 0,-0.390402 -0.160165,-0.62064 -0.156829,-0.233574 -0.443791,-0.233574 -0.156828,0 -0.270279,0.06674 -0.110113,0.0634 -0.180185,0.183522 -0.06674,0.110114 -0.09677,0.266942 -0.02669,0.153491 -0.02669,0.316993 0,0.370382 0.160165,0.603956 0.163502,0.233574 0.420433,0.233574 0.286963,0 0.440454,-0.230237 0.156829,-0.233574 0.156829,-0.587272 z m 0.64066,2.759511 q 0,-0.186859 -0.08676,-0.306983 -0.08676,-0.120124 -0.263605,-0.163502 -0.09343,-0.01335 -0.383729,-0.03003 -0.290299,-0.01668 -0.674028,-0.01668 -0.360371,0.07007 -0.513863,0.233574 -0.150155,0.166839 -0.150155,0.427107 0,0.116787 0.05005,0.223564 0.05005,0.106777 0.173512,0.196869 0.116787,0.08676 0.313657,0.140145 0.196869,0.05673 0.480495,0.05673 0.490505,0 0.770794,-0.190196 0.283626,-0.186859 0.283626,-0.570588 z"
         id="path9126" />
      <path
         d="m 92.382093,21.327811 q -0.156828,0.05673 -0.276952,0.09009 -0.116787,0.0367 -0.266942,0.0367 -0.260268,0 -0.417096,-0.120124 -0.153492,-0.12346 -0.19687,-0.357034 h -0.02002 q -0.216891,0.240247 -0.467149,0.367045 -0.246921,0.126797 -0.597282,0.126797 -0.370382,0 -0.610629,-0.226901 -0.236911,-0.2269 -0.236911,-0.593945 0,-0.190196 0.05339,-0.340351 0.05339,-0.150155 0.160165,-0.270278 0.08342,-0.100104 0.220227,-0.176849 0.136808,-0.08008 0.256932,-0.126798 0.150155,-0.05673 0.607292,-0.210216 0.460475,-0.153492 0.62064,-0.240248 v -0.33034 q 0,-0.04338 -0.02002,-0.166839 -0.01668,-0.123461 -0.07675,-0.233574 -0.06674,-0.123461 -0.190196,-0.213554 -0.120124,-0.09343 -0.343688,-0.09343 -0.153492,0 -0.286962,0.05339 -0.130135,0.05005 -0.183523,0.106777 0,0.06673 0.03003,0.196869 0.03337,0.130135 0.03337,0.240248 0,0.116787 -0.106777,0.213553 -0.10344,0.09677 -0.290299,0.09677 -0.166839,0 -0.246921,-0.116787 -0.07675,-0.120124 -0.07675,-0.266942 0,-0.153492 0.106777,-0.293636 0.110113,-0.140144 0.283625,-0.250258 0.150155,-0.09343 0.363709,-0.156828 0.213553,-0.06674 0.417096,-0.06674 0.280289,0 0.487169,0.04004 0.210217,0.0367 0.380392,0.163501 0.170175,0.123461 0.256931,0.337014 0.09009,0.210217 0.09009,0.543894 0,0.477159 -0.01001,0.847541 -0.01001,0.367045 -0.01001,0.804162 0,0.130134 0.04338,0.20688 0.04671,0.07674 0.140144,0.130134 0.05005,0.03003 0.156828,0.03337 0.110114,0.0033 0.223564,0.0033 z M 91.21756,19.565995 q -0.283626,0.08342 -0.49718,0.163502 -0.213553,0.08008 -0.397075,0.200206 -0.166839,0.11345 -0.263605,0.270279 -0.09677,0.153491 -0.09677,0.367045 0,0.276952 0.143481,0.407086 0.146818,0.130134 0.370382,0.130134 0.236911,0 0.417097,-0.11345 0.180185,-0.116787 0.303646,-0.273616 z"
         id="path9128" />
      <path
         d="m 98.344906,21.387873 h -1.604988 v -0.220227 q 0.07675,-0.0067 0.153492,-0.01335 0.08008,-0.0067 0.140144,-0.0267 0.09343,-0.03003 0.136808,-0.10344 0.04672,-0.07674 0.04672,-0.196869 v -1.698417 q 0,-0.347025 -0.160166,-0.533884 -0.156828,-0.190196 -0.393739,-0.190196 -0.163502,0 -0.306983,0.05005 -0.143481,0.05005 -0.263605,0.140144 -0.09677,0.07341 -0.163502,0.160165 -0.0634,0.08342 -0.09677,0.140145 v 1.898623 q 0,0.116787 0.04004,0.193533 0.04004,0.07341 0.136808,0.11345 0.07675,0.03003 0.136808,0.04672 0.0634,0.01335 0.163501,0.02002 v 0.220227 h -1.571619 v -0.220227 q 0.07675,-0.0067 0.146818,-0.01335 0.07341,-0.0067 0.13347,-0.0267 0.09343,-0.03003 0.136808,-0.10344 0.04672,-0.07674 0.04672,-0.196869 v -1.698417 q 0,-0.347025 -0.160165,-0.533884 -0.156828,-0.190196 -0.393739,-0.190196 -0.163502,0 -0.306983,0.05339 -0.143482,0.05005 -0.263605,0.140145 -0.09677,0.07341 -0.163502,0.166838 -0.06674,0.09009 -0.100103,0.136808 v 1.885277 q 0,0.11345 0.04671,0.190196 0.04672,0.07674 0.140145,0.116787 0.07007,0.03337 0.143481,0.05005 0.07341,0.01668 0.163502,0.02336 v 0.220227 h -1.598314 v -0.220227 q 0.07675,-0.0067 0.156828,-0.01335 0.08342,-0.0067 0.143481,-0.0267 0.09343,-0.03003 0.136808,-0.10344 0.04672,-0.07674 0.04672,-0.196869 v -2.045442 q 0,-0.106776 -0.05005,-0.190196 -0.04671,-0.08676 -0.133471,-0.146818 -0.0634,-0.04004 -0.156828,-0.0634 -0.09343,-0.0267 -0.193533,-0.03337 v -0.21689 l 1.101135,-0.07341 0.04671,0.04672 v 0.470484 h 0.02336 q 0.08342,-0.08342 0.203544,-0.196869 0.120123,-0.11345 0.223563,-0.183523 0.116787,-0.08008 0.290299,-0.133471 0.176849,-0.05339 0.380393,-0.05339 0.32033,0 0.550567,0.173512 0.230237,0.170176 0.330341,0.41376 0.120123,-0.116787 0.210216,-0.203543 0.09343,-0.09009 0.243585,-0.190196 0.126797,-0.08676 0.296972,-0.140145 0.173513,-0.05339 0.383729,-0.05339 0.417097,0 0.660681,0.273615 0.243585,0.273616 0.243585,0.840867 v 1.671723 q 0,0.116787 0.04004,0.193533 0.04004,0.07341 0.136807,0.11345 0.07675,0.03003 0.150155,0.04672 0.07675,0.01335 0.170176,0.02002 z"
         id="path9130" />
      <path
         d="m 101.65165,20.613741 q -0.20688,0.39374 -0.55391,0.627314 -0.34702,0.233574 -0.79748,0.233574 -0.39708,0 -0.69739,-0.140145 -0.296973,-0.140144 -0.490505,-0.380392 -0.193533,-0.240247 -0.2903,-0.560578 -0.09343,-0.32033 -0.09343,-0.677364 0,-0.320331 0.100103,-0.627314 0.10344,-0.310319 0.300309,-0.557241 0.190196,-0.23691 0.470485,-0.380392 0.283626,-0.146818 0.633987,-0.146818 0.36037,0 0.6173,0.113451 0.25693,0.11345 0.4171,0.310319 0.15349,0.18686 0.2269,0.440454 0.0767,0.253595 0.0767,0.550568 v 0.220227 h -2.178917 q 0,0.323667 0.06006,0.587272 0.0634,0.263605 0.19687,0.463811 0.130134,0.193533 0.340351,0.306983 0.210214,0.110114 0.500514,0.110114 0.29697,0 0.51053,-0.136808 0.21689,-0.140144 0.41709,-0.500516 z m -0.73743,-1.254626 q 0,-0.186859 -0.0334,-0.400413 -0.03,-0.213553 -0.1001,-0.357034 -0.0767,-0.153492 -0.21022,-0.250258 -0.13347,-0.09677 -0.34368,-0.09677 -0.350365,0 -0.583939,0.293636 -0.230237,0.290299 -0.250258,0.810836 z"
         id="path9132" />
      <path
         d="m 105.66578,21.387873 h -1.61166 v -0.220227 q 0.0768,-0.0067 0.16684,-0.01335 0.0934,-0.0067 0.15349,-0.0267 0.0934,-0.03003 0.13681,-0.10344 0.0467,-0.07674 0.0467,-0.196869 v -1.691744 q 0,-0.350361 -0.16684,-0.540557 -0.1635,-0.190196 -0.40041,-0.190196 -0.17685,0 -0.32367,0.05673 -0.14682,0.05339 -0.26027,0.133471 -0.11011,0.07675 -0.17685,0.166839 -0.0634,0.08676 -0.0934,0.140144 v 1.89195 q 0,0.11345 0.0467,0.186859 0.0467,0.07341 0.14014,0.113451 0.0701,0.03337 0.15016,0.05005 0.0834,0.01668 0.17017,0.02336 v 0.220227 h -1.61166 v -0.220227 q 0.0768,-0.0067 0.15683,-0.01335 0.0834,-0.0067 0.14348,-0.0267 0.0934,-0.03003 0.13681,-0.10344 0.0467,-0.07674 0.0467,-0.196869 V 18.7952 q 0,-0.11345 -0.0501,-0.206879 -0.0467,-0.09677 -0.13347,-0.156829 -0.0634,-0.04004 -0.15016,-0.05673 -0.0868,-0.02002 -0.18685,-0.02669 v -0.21689 l 1.09446,-0.07341 0.0467,0.04672 V 18.5683 h 0.0167 q 0.0801,-0.08008 0.2002,-0.190196 0.12013,-0.11345 0.2269,-0.183523 0.12346,-0.08008 0.29364,-0.133471 0.17017,-0.05339 0.38373,-0.05339 0.47382,0 0.70072,0.296973 0.23024,0.293636 0.23024,0.784141 v 1.711765 q 0,0.116787 0.04,0.190196 0.04,0.07007 0.13681,0.110113 0.0801,0.03337 0.1368,0.04672 0.0601,0.01335 0.1635,0.02002 z"
         id="path9134" />
      <path
         d="m 108.10163,21.244391 q -0.21689,0.09009 -0.41042,0.150155 -0.19354,0.0634 -0.47383,0.0634 -0.41376,0 -0.58393,-0.20688 -0.16684,-0.210217 -0.16684,-0.590609 v -2.228964 h -0.59395 v -0.32033 h 0.6073 v -1.024389 h 0.60729 v 1.024389 h 0.94431 v 0.32033 h -0.93764 v 1.838562 q 0,0.20688 0.0134,0.347024 0.0167,0.136808 0.0734,0.240248 0.0534,0.09677 0.16016,0.146818 0.10678,0.05005 0.28697,0.05005 0.0834,0 0.24358,-0.01335 0.1635,-0.01668 0.23024,-0.04004 z"
         id="path9136" />
      <path
         d="m 111.63527,19.709476 q 0,0.347024 -0.11011,0.684038 -0.11012,0.333678 -0.31366,0.567252 -0.23024,0.266942 -0.53388,0.397076 -0.30365,0.130134 -0.6807,0.130134 -0.31366,0 -0.59729,-0.116787 -0.28362,-0.120124 -0.50385,-0.347025 -0.21689,-0.223563 -0.34702,-0.543893 -0.1268,-0.323667 -0.1268,-0.72408 0,-0.770795 0.44713,-1.2613 0.45046,-0.490506 1.17788,-0.490506 0.69071,0 1.13784,0.467148 0.45046,0.463812 0.45046,1.237943 z m -0.69071,0.0067 q 0,-0.250258 -0.05,-0.52721 -0.05,-0.280289 -0.15016,-0.473822 -0.10677,-0.20688 -0.28029,-0.330341 -0.17351,-0.126797 -0.42377,-0.126797 -0.25693,0 -0.44045,0.126797 -0.18019,0.126798 -0.29364,0.347025 -0.10677,0.203543 -0.15015,0.463811 -0.0434,0.260268 -0.0434,0.503853 0,0.32033 0.05,0.593945 0.0534,0.270279 0.16684,0.483832 0.11345,0.213554 0.28363,0.337014 0.17351,0.120124 0.4271,0.120124 0.4171,0 0.66068,-0.403749 0.24359,-0.40375 0.24359,-1.114482 z"
         id="path9138" />
      <path
         d="m 117.36451,21.327811 -1.14785,0.07341 -0.05,-0.04671 v -0.306983 l -0.0267,-0.0067 q -0.17351,0.193533 -0.43044,0.316994 -0.2536,0.12346 -0.52387,0.12346 -0.28029,0 -0.5439,-0.12346 -0.26027,-0.126798 -0.4538,-0.353698 -0.19687,-0.230237 -0.31366,-0.553904 -0.11345,-0.323667 -0.11345,-0.71407 0,-0.357034 0.12346,-0.677365 0.12346,-0.32033 0.34035,-0.560577 0.20355,-0.223564 0.49718,-0.357035 0.29698,-0.133471 0.60396,-0.133471 0.23024,0 0.45046,0.06006 0.22357,0.05673 0.38373,0.146818 v -1.144513 q 0,-0.140144 -0.0467,-0.253595 -0.0467,-0.116787 -0.13014,-0.176849 -0.0934,-0.0634 -0.25359,-0.09009 -0.15683,-0.03003 -0.34035,-0.04338 v -0.206879 l 1.34472,-0.07675 0.05,0.05005 v 4.437908 q 0,0.116787 0.0434,0.200206 0.0467,0.08008 0.13347,0.136808 0.0634,0.04004 0.18352,0.05005 0.12012,0.01001 0.22023,0.01335 z m -1.20458,-0.577262 v -1.925318 q -0.0267,-0.08676 -0.0868,-0.186859 -0.0601,-0.100103 -0.15016,-0.183522 -0.0968,-0.08342 -0.2269,-0.136808 -0.13013,-0.05673 -0.30364,-0.05673 -0.20021,0 -0.37039,0.10344 -0.16684,0.10344 -0.29697,0.296973 -0.12346,0.186859 -0.19687,0.477158 -0.0701,0.286962 -0.0701,0.637324 0,0.280288 0.0534,0.510526 0.0534,0.2269 0.18018,0.42377 0.11679,0.186859 0.29698,0.300309 0.18352,0.113451 0.43378,0.113451 0.26694,0 0.44045,-0.116787 0.17685,-0.116787 0.29697,-0.256932 z"
         id="path9140" />
      <path
         d="m 120.60785,20.613741 q -0.20688,0.39374 -0.5539,0.627314 -0.34703,0.233574 -0.79749,0.233574 -0.39708,0 -0.69739,-0.140145 -0.29697,-0.140144 -0.4905,-0.380392 -0.19353,-0.240247 -0.2903,-0.560578 -0.0934,-0.32033 -0.0934,-0.677364 0,-0.320331 0.1001,-0.627314 0.10344,-0.310319 0.30031,-0.557241 0.1902,-0.23691 0.47049,-0.380392 0.28362,-0.146818 0.63398,-0.146818 0.36038,0 0.61731,0.113451 0.25693,0.11345 0.41709,0.310319 0.15349,0.18686 0.2269,0.440454 0.0768,0.253595 0.0768,0.550568 v 0.220227 h -2.17891 q 0,0.323667 0.0601,0.587272 0.0634,0.263605 0.19687,0.463811 0.13013,0.193533 0.34035,0.306983 0.21022,0.110114 0.50052,0.110114 0.29697,0 0.51052,-0.136808 0.21689,-0.140144 0.4171,-0.500516 z m -0.73742,-1.254626 q 0,-0.186859 -0.0334,-0.400413 -0.03,-0.213553 -0.10011,-0.357034 -0.0767,-0.153492 -0.21021,-0.250258 -0.13347,-0.09677 -0.34369,-0.09677 -0.35036,0 -0.58394,0.293636 -0.23023,0.290299 -0.25025,0.810836 z"
         id="path9142" />
      <path
         d="m 126.08016,19.182266 q 0.20688,0.140144 0.34369,0.367045 0.1368,0.226901 0.1368,0.550567 0,0.330341 -0.14348,0.573925 -0.14348,0.243585 -0.37372,0.400413 -0.22356,0.153492 -0.50718,0.233574 -0.28029,0.08008 -0.5806,0.08008 h -2.24231 v -0.236911 q 0.0801,-0.0067 0.23357,-0.02669 0.15349,-0.02336 0.22023,-0.05339 0.10344,-0.04672 0.14681,-0.12346 0.0434,-0.08008 0.0434,-0.203543 v -3.403508 q 0,-0.113451 -0.04,-0.200207 -0.0367,-0.08676 -0.15015,-0.140144 -0.10011,-0.05005 -0.22357,-0.07675 -0.12346,-0.02669 -0.20688,-0.03337 v -0.236911 h 2.18559 q 0.25359,0 0.48383,0.05005 0.23358,0.05005 0.44379,0.176849 0.19687,0.116787 0.32367,0.316993 0.1268,0.200207 0.1268,0.487169 0,0.250258 -0.0901,0.447128 -0.0901,0.193532 -0.25359,0.333677 -0.15349,0.133471 -0.3537,0.2269 -0.19687,0.09009 -0.42711,0.140145 v 0.03003 q 0.20355,0.02336 0.4538,0.10344 0.2536,0.07675 0.45047,0.21689 z M 125.276,18.468197 q 0.12346,-0.143482 0.17017,-0.313657 0.05,-0.170175 0.05,-0.403749 0,-0.390403 -0.21355,-0.61063 -0.21355,-0.223564 -0.67403,-0.223564 -0.10677,0 -0.27028,0.0067 -0.16016,0.0033 -0.27027,0.0067 v 1.818541 h 0.42377 q 0.27361,0 0.46714,-0.07007 0.19687,-0.07007 0.317,-0.210216 z m 0.46047,1.511558 q 0,-0.420434 -0.28362,-0.690712 -0.28029,-0.270279 -0.80417,-0.270279 -0.21355,0 -0.36037,0.0067 -0.14682,0.0033 -0.22022,0.0067 v 1.668387 q 0,0.210216 0.17017,0.316993 0.17018,0.106777 0.47382,0.106777 0.49718,0 0.76079,-0.2903 0.2636,-0.290299 0.2636,-0.854213 z"
         id="path9144" />
      <path
         d="m 130.31119,19.709476 q 0,0.347024 -0.11012,0.684038 -0.11011,0.333678 -0.31365,0.567252 -0.23024,0.266942 -0.53389,0.397076 -0.30364,0.130134 -0.6807,0.130134 -0.31366,0 -0.59728,-0.116787 -0.28363,-0.120124 -0.50385,-0.347025 -0.21689,-0.223563 -0.34703,-0.543893 -0.1268,-0.323667 -0.1268,-0.72408 0,-0.770795 0.44713,-1.2613 0.45047,-0.490506 1.17788,-0.490506 0.69071,0 1.13784,0.467148 0.45047,0.463812 0.45047,1.237943 z m -0.69072,0.0067 q 0,-0.250258 -0.05,-0.52721 -0.05,-0.280289 -0.15015,-0.473822 -0.10678,-0.20688 -0.28029,-0.330341 -0.17351,-0.126797 -0.42377,-0.126797 -0.25693,0 -0.44046,0.126797 -0.18018,0.126798 -0.29363,0.347025 -0.10678,0.203543 -0.15016,0.463811 -0.0434,0.260268 -0.0434,0.503853 0,0.32033 0.05,0.593945 0.0534,0.270279 0.16684,0.483832 0.11345,0.213554 0.28362,0.337014 0.17351,0.120124 0.42711,0.120124 0.4171,0 0.66068,-0.403749 0.24358,-0.40375 0.24358,-1.114482 z"
         id="path9146" />
      <path
         d="m 132.32994,21.387873 h -1.60499 v -0.220227 q 0.0767,-0.0067 0.1635,-0.01335 0.0868,-0.01001 0.14348,-0.0267 0.0934,-0.03003 0.14015,-0.10344 0.0467,-0.07674 0.0467,-0.196869 v -3.810594 q 0,-0.120124 -0.0534,-0.223564 -0.05,-0.106777 -0.13347,-0.166839 -0.0601,-0.04004 -0.22023,-0.07341 -0.16016,-0.03337 -0.25693,-0.04004 v -0.213553 l 1.23795,-0.07675 0.0467,0.05005 v 4.514654 q 0,0.116787 0.0434,0.193532 0.0434,0.07341 0.14014,0.113451 0.0734,0.03337 0.14348,0.05005 0.0734,0.01668 0.16351,0.02336 z"
         id="path9148" />
      <path
         d="m 135.66671,20.613741 q -0.20688,0.39374 -0.55391,0.627314 -0.34702,0.233574 -0.79748,0.233574 -0.39708,0 -0.69739,-0.140145 -0.29697,-0.140144 -0.49051,-0.380392 -0.19353,-0.240247 -0.29029,-0.560578 -0.0934,-0.32033 -0.0934,-0.677364 0,-0.320331 0.1001,-0.627314 0.10344,-0.310319 0.30031,-0.557241 0.19019,-0.23691 0.47048,-0.380392 0.28363,-0.146818 0.63399,-0.146818 0.36037,0 0.6173,0.113451 0.25693,0.11345 0.4171,0.310319 0.15349,0.18686 0.2269,0.440454 0.0768,0.253595 0.0768,0.550568 v 0.220227 h -2.17892 q 0,0.323667 0.0601,0.587272 0.0634,0.263605 0.19687,0.463811 0.13013,0.193533 0.34035,0.306983 0.21021,0.110114 0.50051,0.110114 0.29697,0 0.51053,-0.136808 0.21689,-0.140144 0.41709,-0.500516 z m -0.73743,-1.254626 q 0,-0.186859 -0.0334,-0.400413 -0.03,-0.213553 -0.1001,-0.357034 -0.0767,-0.153492 -0.21022,-0.250258 -0.13347,-0.09677 -0.34368,-0.09677 -0.35036,0 -0.58394,0.293636 -0.23024,0.290299 -0.25026,0.810836 z"
         id="path9150" />
      <path
         d="m 138.07919,21.244391 q -0.21689,0.09009 -0.41042,0.150155 -0.19353,0.0634 -0.47382,0.0634 -0.41376,0 -0.58394,-0.20688 -0.16684,-0.210217 -0.16684,-0.590609 v -2.228964 h -0.59394 v -0.32033 h 0.60729 v -1.024389 h 0.60729 v 1.024389 h 0.94431 v 0.32033 h -0.93763 v 1.838562 q 0,0.20688 0.0133,0.347024 0.0167,0.136808 0.0734,0.240248 0.0534,0.09677 0.16017,0.146818 0.10678,0.05005 0.28696,0.05005 0.0834,0 0.24359,-0.01335 0.1635,-0.01668 0.23023,-0.04004 z"
         id="path9152" />
      <path
         d="m 141.61284,19.709476 q 0,0.347024 -0.11012,0.684038 -0.11011,0.333678 -0.31365,0.567252 -0.23024,0.266942 -0.53389,0.397076 -0.30364,0.130134 -0.6807,0.130134 -0.31366,0 -0.59728,-0.116787 -0.28363,-0.120124 -0.50385,-0.347025 -0.21689,-0.223563 -0.34703,-0.543893 -0.1268,-0.323667 -0.1268,-0.72408 0,-0.770795 0.44713,-1.2613 0.45047,-0.490506 1.17788,-0.490506 0.69072,0 1.13784,0.467148 0.45047,0.463812 0.45047,1.237943 z m -0.69072,0.0067 q 0,-0.250258 -0.05,-0.52721 -0.05,-0.280289 -0.15015,-0.473822 -0.10678,-0.20688 -0.28029,-0.330341 -0.17351,-0.126797 -0.42377,-0.126797 -0.25693,0 -0.44045,0.126797 -0.18019,0.126798 -0.29364,0.347025 -0.10678,0.203543 -0.15016,0.463811 -0.0434,0.260268 -0.0434,0.503853 0,0.32033 0.05,0.593945 0.0534,0.270279 0.16684,0.483832 0.11345,0.213554 0.28362,0.337014 0.17351,0.120124 0.42711,0.120124 0.4171,0 0.66068,-0.403749 0.24358,-0.40375 0.24358,-1.114482 z"
         id="path9154" />
    </g>
  </g>
</svg>
