<?xml version="1.0" encoding="UTF-8"?>
<!DOCTYPE svg PUBLIC "-//W3C//DTD SVG 1.1//EN" "http://www.w3.org/Graphics/SVG/1.1/DTD/svg11.dtd">
<!-- Creator: CorelDRAW 2020 (64 Bit) -->
<svg xmlns="http://www.w3.org/2000/svg" xml:space="preserve" width="150mm" height="90mm" version="1.1" style="shape-rendering:geometricPrecision; text-rendering:geometricPrecision; image-rendering:optimizeQuality; fill-rule:evenodd; clip-rule:evenodd"
viewBox="0 0 15000 9000"
 xmlns:xlink="http://www.w3.org/1999/xlink"
 xmlns:xodm="http://www.corel.com/coreldraw/odm/2003">
 <defs>
  <style type="text/css">
   <![CDATA[
    .fil0 {fill:black}
    .fil1 {fill:#325D88}
    .fil2 {fill:#93C54B}
   ]]>
  </style>
 </defs>
 <g id="Camada_x0020_1">
  <metadata id="CorelCorpID_0Corel-Layer"/>
  <path class="fil0" d="M12979.69 6461.16c849.42,-268.17 1225.2,996.95 394.14,1262.27 -818.79,261.42 -1253.01,-991.11 -394.14,-1262.27zm-11357.63 -633.95c806.2,-311.59 1238.58,947.07 432.27,1243.93 -779.36,286.94 -1333.6,-895.57 -432.27,-1243.93zm2721.17 -2218.4c351.54,-92.76 851.95,69.65 1128.39,216.51 383.14,203.52 249.02,688.83 -189.31,786.91 -418.42,93.62 -802.9,-49.85 -1098.6,-231.84 -374.23,-230.31 -265.92,-659.32 159.52,-771.58zm1990.89 -1734.49c105.49,-161.03 382.15,-718.83 457.1,-906.05 -519.33,-414.26 -1588.9,-651.87 -2328.17,-291.22 -309.46,150.97 -603.36,426.96 -745.49,753.42 -205.86,472.83 -123.61,752.7 27.56,1187.79 -335.16,265.02 -946.51,465.26 -984.31,1404.89 -68.82,1710.37 2445.65,1544.77 2215.76,2484.79 -77.22,315.76 -427.1,409.69 -804.66,390.99 -372.83,-18.46 -577.84,-211.02 -859.33,-305.1 -18.74,-593.42 -193.03,-1126.16 -722.02,-1415.39 -819.54,-448.08 -1762.15,-137.76 -2122.48,674.56 -529.05,1192.72 665.29,2434.45 1845.13,1997.12 513.61,-190.38 225.23,-310.33 713.63,-80.97 925.66,434.72 2608.85,407.89 3128.92,-629.64 276.85,-552.34 225.76,-1197.25 -103.93,-1609.94 261.01,-195.06 442.99,-195.84 598.04,-469.82 84.13,222.08 -267.41,2447.47 -204,2770.22l1524.69 -7.7 291.42 -3561.56c8.23,-104.56 5.14,-413.03 80.19,-461.97l1385.64 3992.67 894.04 0c115.38,-79.9 322.02,-810.43 387.68,-995.34 119.36,-336.06 228.66,-665.57 346.78,-998.13 120.25,-338.57 639.66,-1768.72 689.4,-2002.97 47.59,51.4 28.83,15.43 57.07,99.28l107.67 1321.51c10.72,135.98 74.62,592.48 40.93,686.09 -30.49,84.71 -807.8,653.96 -483.59,1652.79 408.93,1259.89 2142.51,1374.12 2737.7,200.82 289.99,-571.67 152.74,-1262.06 -274.78,-1716.29 -127.51,-135.47 -275.71,-198.89 -448.08,-315.07l-419.69 -4701.5 -1610.16 -1.35c-127.65,74.89 -173.03,336.19 -229.23,481l-1317.2 3389.49c-1.67,-4.47 -7.86,12.23 -22.82,21.88l-1486.89 -3889.74c-268.25,-8.17 -1493.05,-42.64 -1662.21,22.1l-221.23 2469.04 -114.49 -123.28c-34.21,-46.53 -39.7,-60.81 -77.4,-105.3 -118.24,-139.59 -458.22,-376.18 -627.64,-470.93 -503.24,-281.45 -1411.65,-461.82 -1253.54,-973.46 53.74,-173.89 229.44,-273.21 440.41,-299.2 478.05,-58.89 834.73,180.61 1153.58,331.47z"/>
  <ellipse class="fil1" cx="13188.65" cy="7079.3" rx="462.07" ry="483.93"/>
  <ellipse class="fil2" cx="1819.67" cy="6444.76" rx="462.07" ry="483.93"/>
 </g>
</svg>
