<svg height="512" viewBox="0 0 44 60" width="512" xmlns="http://www.w3.org/2000/svg"><g id="008---Chair" fill="none"><g id="Icons" transform="translate(2 1)"><path id="Shape" d="m37 18v12.24c-.55 0 1.31-.17-4 .71v-12.95z" fill="#825a2c"/><rect id="Rectangle-path" fill="#a0522d" height="4" rx="1" width="10" x="30" y="22"/><path id="Shape" d="m14.35 36.6-8.83-1.08 22.48 22.48h7.75z" fill="#91562d"/><path id="Shape" d="m37 30.24c-4.812797.9598556-9.6954221 1.5283805-14.6 1.7-6.5108809.1934207-13.02198905-.3771403-19.4-1.7-.55228475 0-1 .4477153-1 1v2.76c-.01067365.4796928.3208621.8993583.79 1 11.3467277 2.4104679 23.0732723 2.4104679 34.42 0 .4691379-.1006417.8006736-.5203072.79-1v-2.77c-.005484-.5483755-.451597-.9900274-1-.99z" fill="#60a917"/><rect id="Rectangle-path" fill="#60a917" height="14" rx="1" width="38" x="1" y="4"/><path id="Shape" d="m39 5v12c0 .5522847-.4477153 1-1 1h-3c.5522847 0 1-.4477153 1-1v-12c0-.55228475-.4477153-1-1-1h3c.5522847 0 1 .44771525 1 1z" fill="#549414"/><g fill="#825a2c"><path id="Shape" d="m7 4h-4v-2c0-1.1045695.8954305-2 2-2s2 .8954305 2 2z"/><path id="Shape" d="m37 4h-4v-2c0-1.1045695.8954305-2 2-2s2 .8954305 2 2z"/><path id="Shape" d="m7 18v13c-2.76-.46-3.79-.72-4-.72v-12.28z"/></g><path id="Shape" d="m35.74 58h-3.52c-18.58-18.58-14.48-14.45-21.66-21.86l3.79.46z" fill="#783e22"/><path id="Shape" d="m32.22 58h-4.22l-22.48-22.48 5 .62c7.15 7.33 2.92 3.08 21.7 21.86z" fill="#6d4122"/><path id="Shape" d="m32.22 58h-4.22c-24.12-24.11-21.83-21.77-22.33-22.46l4.89.6c7.37 7.61 3.3 3.5 21.66 21.86z" fill="#a0522d"/><path id="Shape" d="m25.65 36.6-5.65 5.65 3.88 3.88 10.6-10.61z" fill="#825a2c"/><path id="Shape" d="m4.26 58 11.87-11.87 3.87 3.87-8 8z" fill="#825a2c"/><path id="Shape" d="m38 31.23v2.77c.0106736.4796928-.3208621.8993583-.79 1-6.1484205 1.3046282-12.4258705 1.9018415-18.71 1.78 5.2816159-.0884071 10.5424933-.6844836 15.71-1.78.4691379-.1006417.8006736-.5203072.79-1 0-3.08.06-3-.19-3.36.66-.11 1.33-.24 2-.38.2910507-.056347.5921001.0193484.8218872.2066538.2297871.1873055.3646233.4669119.3681128.7633462z" fill="#549414"/><path id="Shape" d="m35 34c.0106736.4796928-.3208621.8993583-.79 1-10.3419039 2.3464905-21.0780961 2.3464905-31.42 0-.4691379-.1006417-.80067365-.5203072-.79-1 0-3.08-.06-3 .19-3.36.23186853-.3093006.62123806-.457261 1-.38 10.4150198 2.1505816 21.1462911 2.2795877 31.61.38.28.36.2.5.2 3.36z" fill="#60a917"/><rect id="Rectangle-path" fill="#a0522d" height="4" rx="1" width="10" y="22"/><path id="Shape" d="m40 23v2c0 .5522847-.4477153 1-1 1h-3c.5522847 0 1-.4477153 1-1v-2c0-.5522847-.4477153-1-1-1h3c.5522847 0 1 .4477153 1 1z" fill="#783e22"/></g><g id="Layer_2" fill="#000"><path id="Shape" d="m7 10h2c.55228475 0 1-.44771525 1-1s-.44771525-1-1-1h-2c-.55228475 0-1 .44771525-1 1s.44771525 1 1 1z"/><path id="Shape" d="m13 10h17c.5522847 0 1-.44771525 1-1s-.4477153-1-1-1h-17c-.5522847 0-1 .44771525-1 1s.4477153 1 1 1z"/><path id="Shape" d="m19 14c0 .5522847.4477153 1 1 1h17c.5522847 0 1-.4477153 1-1s-.4477153-1-1-1h-17c-.5522847 0-1 .4477153-1 1z"/><path id="Shape" d="m1 60h42c.5522847 0 1-.4477153 1-1s-.4477153-1-1-1h-4.85l-10.86-10.87 9.71-9.69c.82-.14 1.63-.3 2.44-.48.9154289-.2064425 1.5642209-1.0215913 1.56-1.96v-2.77c.0069212-.7106388-.377258-1.3675853-1-1.71v-2.52h1c1.1045695 0 2-.8954305 2-2v-2c0-1.1045695-.8954305-2-2-2h-1v-2c1.1045695 0 2-.8954305 2-2v-12c0-1.1045695-.8954305-2-2-2v-1c0-1.65685425-1.3431458-3-3-3s-3 1.34314575-3 3v1h-24v-1c0-1.65685425-1.34314575-3-3-3s-3 1.34314575-3 3v1c-1.1045695 0-2 .8954305-2 2v12c0 1.1045695.8954305 2 2 2v2h-1c-1.1045695 0-2 .8954305-2 2v2c0 1.1045695.8954305 2 2 2h1v2.52c-.62115777.3440389-1.00472888.9999455-1 1.71v2.77c-.02039977.9624448.64773884 1.8028707 1.59 2-.11 0 2.13.43 2.44.48l9.68 9.69-10.86 10.83h-4.85c-.55228475 0-1 .4477153-1 1s.44771525 1 1 1zm26.58-2h-11.16l5.58-5.58zm-1.7-12.28-2.47-2.47 4.67-4.67c1.84-.1266667 3.68-.3233333 5.52-.59zm-7-7c2.32.08 3.89.08 6.18 0l-3.06 3.12zm19.12-8.33c-.67.13-1.33.25-2 .36v-2.75h2zm-27-2.39c1.1045695 0 2-.8954305 2-2v-2c0-1.1045695-.8954305-2-2-2h-1v-2h24v2h-1c-1.1045695 0-2 .8954305-2 2v2c0 1.1045695.8954305 2 2 2h1v3.09c-7.955371 1.1950427-16.044629 1.1950427-24 0v-3.09zm30-2h-8v-2h8zm-3-4h-2v-2h2zm-2-19c0-.55228475.4477153-1 1-1s1 .44771525 1 1v1h-2zm-30 0c0-.55228475.44771525-1 1-1s1 .44771525 1 1v1h-2zm-2 3h36v12h-36zm2 14h2v2h-2zm-3 4h8v2h-8zm5 4v2.75l-2-.36v-2.39zm-3 7v-2.76c11.2119118 2.3461546 22.7880882 2.3461546 34 0v2.76c-11.2057034 2.4053873-22.7942966 2.4053873-34 0zm10.92 3.58 19.41 19.42h-4.93c-.94-.94 5.05 5-20-20 1.84.2533333 3.68.4466667 5.52.58zm2.2 10 2.47 2.42-7 7h-4.92z"/></g></g></svg>