<svg id="Furniture_and_household" height="512" viewBox="0 0 64 64" width="512" xmlns="http://www.w3.org/2000/svg" data-name="Furniture and household"><path d="m51.1 40.98a.989.989 0 0 0 .9-.98v-8a1 1 0 0 0 -1-1h-6v-19h1a3.009 3.009 0 0 0 3-3v-4a3.009 3.009 0 0 0 -3-3h-28a3.009 3.009 0 0 0 -3 3v4a3.009 3.009 0 0 0 3 3h1v19h-6a1 1 0 0 0 -1 1v8a1 1 0 0 0 1 1h.84l-1.9 19.91a1.013 1.013 0 0 0 .26.76 1 1 0 0 0 .74.33h4a1 1 0 0 0 .98-.81l1.58-8.19h25.96l1.56 8.19a1 1 0 0 0 .98.81h4a1 1 0 0 0 .74-.33 1.013 1.013 0 0 0 .26-.76zm-33.1-30.98a1 1 0 0 1 -1-1v-4a1 1 0 0 1 1-1h28a1 1 0 0 1 1 1v4a1 1 0 0 1 -1 1zm25 2v19h-1v-19zm-3 0v19h-16v-19zm-18 0v19h-1v-19zm-8 21h36v6h-36zm30.32 14h-23.66l1.16-6h21.35zm-28.21 13h-2.07l1.81-19h3.94zm3.78-9 .39-2h24.42l.38 2zm28.94 9-3.62-19h3.88l1.81 19z"/></svg>