<?xml version="1.0" encoding="iso-8859-1"?>
<!-- Generator: Adobe Illustrator 19.0.0, SVG Export Plug-In . SVG Version: 6.00 Build 0)  -->
<svg version="1.1" id="Capa_1" xmlns="http://www.w3.org/2000/svg" xmlns:xlink="http://www.w3.org/1999/xlink" x="0px" y="0px"
	 viewBox="0 0 512 512" style="enable-background:new 0 0 512 512;" xml:space="preserve">
<path style="fill:#4A94CC;" d="M504.5,337.452c0,6.627-5.371,12.001-12.001,12.001H19.501c-6.627,0-12.001-5.373-12.001-12.001
	V174.548c0-6.628,5.373-12.001,12.001-12.001h472.998c6.629,0,12.001,5.372,12.001,12.001V337.452z"/>
<path style="fill:#2884BC;" d="M27.502,337.452V174.548c0-6.628,5.373-12.001,12.001-12.001H19.501
	c-6.627,0-12.001,5.372-12.001,12.001v162.905c0,6.627,5.373,12.001,12.001,12.001h20.001
	C32.875,349.453,27.502,344.08,27.502,337.452z"/>
<path d="M441.018,277.862l-14.185-0.009v-53.262c0-6.982-3.867-9.472-7.486-9.472c-4.839,0,0.306-2.32-103.92,61.689
	c-7.71,4.728-6.111,11.55,3.406,11.55l88.849,0.012v5.559c0,1.641,1.33,2.969,2.971,2.969c17.979,0,16.181,1.49,16.181-8.535
	c18.708,0,17.151,1.411,17.151-7.532C443.985,279.192,442.657,277.863,441.018,277.862z M407.7,232.577v45.259h-73.508
	L407.7,232.577z"/>
<path d="M164.474,215.118H71.515c-1.639,0-2.969,1.33-2.969,2.969v4.565c0,1.64,1.33,2.969,2.969,2.969h87.29
	c6.416,0,10.097,4.35,10.097,11.936c0,7.585-3.68,11.938-10.097,11.938h-70.17c-11.452,0-20.089,9.581-20.089,22.287l0.006,22.146
	c0,1.64,1.33,2.968,2.969,2.968H84.68c1.639,0,2.969-1.329,2.969-2.969v-22.146c0-7.045,3.844-11.78,9.564-11.78h67.262
	c14.509,0,23.522-8.593,23.522-22.424C187.996,223.724,178.983,215.118,164.474,215.118z"/>
<path d="M320.123,222.638c0-4.719,0.233-5.563-0.869-6.666c-0.557-0.557-1.313-0.87-2.102-0.87l-50.739,0.01
	c-14.509,0-23.522,8.601-23.522,22.445v36.897c0,7.58-3.68,11.929-10.097,11.929h-47.616c-1.639,0-2.969,1.33-2.969,2.969v4.575
	c0,1.641,1.33,2.969,2.969,2.969h53.276c14.521,0,23.538-8.596,23.538-22.433v-36.918c0-7.587,3.678-11.938,10.089-11.938h45.073
	C318.793,225.608,320.123,224.278,320.123,222.638z"/>
<path d="M504.5,249.111c-4.143,0-7.5-3.358-7.5-7.5v-67.063c0-2.481-2.018-4.5-4.5-4.5H273.501c-4.143,0-7.5-3.358-7.5-7.5
	c0-4.142,3.357-7.5,7.5-7.5h218.997c10.753,0,19.501,8.749,19.501,19.501v67.063C512,245.753,508.642,249.111,504.5,249.111z"/>
<path d="M492.499,356.954H19.501C8.749,356.954,0,348.206,0,337.452V174.548c0-10.753,8.749-19.501,19.501-19.501h218.997
	c4.143,0,7.5,3.358,7.5,7.5c0,4.142-3.357,7.5-7.5,7.5H19.501c-2.481,0-4.5,2.019-4.5,4.5v162.905c0,2.482,2.019,4.5,4.5,4.5
	h472.998c2.482,0,4.5-2.018,4.5-4.5v-60.839c0-4.142,3.357-7.5,7.5-7.5s7.5,3.358,7.5,7.5v60.839
	C512,348.205,503.251,356.954,492.499,356.954z"/>
<g>
</g>
<g>
</g>
<g>
</g>
<g>
</g>
<g>
</g>
<g>
</g>
<g>
</g>
<g>
</g>
<g>
</g>
<g>
</g>
<g>
</g>
<g>
</g>
<g>
</g>
<g>
</g>
<g>
</g>
</svg>
