<?xml version="1.0" encoding="iso-8859-1"?>
<!-- Generator: Adobe Illustrator 19.0.0, SVG Export Plug-In . SVG Version: 6.00 Build 0)  -->
<svg version="1.1" id="Capa_1" xmlns="http://www.w3.org/2000/svg" xmlns:xlink="http://www.w3.org/1999/xlink" x="0px" y="0px"
	 viewBox="0 0 512.001 512.001" style="enable-background:new 0 0 512.001 512.001;" xml:space="preserve">
<g>
	<path style="fill:#8DD83D;" d="M332.134,253.395c15.277-9.623,11.729-30.055,1.763-38.027c-10.043-8.032-17.833-6.692-58.066-6.692
		c-1.714,0-3.107,1.392-3.107,3.107v37.207c-11.629,0-12.168-0.37-13.365,1.288c-3.36,4.65-4.663,5.728-3.582,7.846
		c1.123,2.192,1.872,1.693,17.006,1.693v40.655c0,1.715,1.39,3.106,3.105,3.107c33.617,0.029,38.674,0.012,44.866-0.912
		c14.728-2.189,23.94-11.696,24.64-25.431C346.188,261.815,336.25,256.323,332.134,253.395z M323.006,246.603
		c-6.473,2.951-7.806,2.382-38.39,2.364v-29.114c1.017-0.165,21.596-0.133,28.532,0.03c2.748,0.065,5.787,0.628,8.786,1.626
		c5.483,1.831,8.491,5.901,8.697,11.77C330.853,239.711,328.288,244.194,323.006,246.603z M284.603,292.494v-32.713
		c26.631,0,48.07-3.012,49.043,14.807c0.392,7.164-2.832,12.667-9.077,15.49c-6.58,2.967-12.04,2.556-32.237,2.504
		C284.636,292.564,285.51,292.603,284.603,292.494z"/>
	<path style="fill:#8DD83D;" d="M437.542,240.207c-10.447-41.201-64.66-44.708-82.642-10.128
		c-16.012,30.791-0.306,77.861,41.802,75.457C431.195,303.581,445.257,270.615,437.542,240.207z M394.363,294.384L394.363,294.384
		c-34.322,0-41.088-43.327-25.922-63.698c15.474-20.777,51.169-16.947,57.96,14.343
		C431.746,269.659,419.474,294.384,394.363,294.384z"/>
	<path style="fill:#8DD83D;" d="M478.6,253.917c31.942-43.341,31.085-41.093,29.899-43.443c-1.099-2.176-2.909-1.706-9.002-1.706
		c-2.163,0-0.402-1.585-27.961,35.808c-27.468-37.231-25.757-35.734-27.931-35.734c-6.118,0-7.912-0.462-9.007,1.706
		c-0.529,1.047-0.424,2.302,0.272,3.246l29.594,40.127c-35.39,48.217-34.207,45.517-33.02,47.865
		c1.098,2.168,2.895,1.703,9.022,1.703c0.987,0,1.916-0.469,2.501-1.263l28.565-38.738l28.537,38.668
		c1.195,1.617,2.371,1.262,8.74,1.262c1.17,0,2.243-0.659,2.772-1.703C512.777,299.351,513.81,301.874,478.6,253.917z"/>
	<path style="fill:#8DD83D;" d="M233.01,253.917c31.839-43.17,31.104-41.076,29.914-43.435c-0.529-1.047-1.602-1.707-2.774-1.707
		c-6.452,0-7.553-0.328-8.727,1.263l-25.486,34.546c-27.441-37.251-25.74-35.761-27.913-35.761c-6.16,0-7.886-0.442-8.973,1.706
		c-0.528,1.046-0.423,2.301,0.272,3.245l29.583,40.144c-35.41,48.203-34.224,45.5-33.036,47.85c1.098,2.166,2.88,1.704,9.036,1.704
		c2.166,0,0.061,2.032,31.049-39.979c31.016,42.032,28.909,39.979,31.07,39.979c0.156,0,6.331,0,6.275,0
		c2.711,0,4.095-3.222,2.3-5.196L233.01,253.917z"/>
	<path style="fill:#8DD83D;" d="M46.855,190.153c8.146,0.997,18.185,4.647,29.839,10.849c0.736,0.392,1.638,0.403,2.397-0.007
		c11.49-6.203,21.465-9.872,29.649-10.906c2.513-0.318,3.055-3.747,0.75-4.818c-19.743-9.168-42.409-9.768-63.403,0.067
		c-1.024,0.48-1.607,1.58-1.429,2.697C44.836,189.152,45.732,190.016,46.855,190.153z"/>
	<path style="fill:#8DD83D;" d="M130.89,306.054c-0.134-0.978-3.834-24.39-51.633-63.908c-0.926-0.765-2.262-0.777-3.2-0.027
		c-42.101,33.616-57.102,65.771-50.223,71.695c16.259,14.024,31.815,20.008,52.016,20.008c21.953,0,35.868-7.366,51.207-19.253
		c2.96-2.296,1.885-8.224,1.853-8.39L130.89,306.054z"/>
	<path style="fill:#8DD83D;" d="M131.301,200.588c-8.567-1.375-24.733,13.162-30.998,19.248c-0.937,0.91-1.029,2.384-0.214,3.404
		c30.812,38.525,38.606,60.523,39.719,72.192c0.104,1.086,0.891,1.985,1.953,2.231c1.073,0.248,2.17-0.224,2.735-1.145
		c7.413-12.088,11.331-26.077,11.331-40.455C155.829,224.341,134.129,201.041,131.301,200.588z"/>
	<path style="fill:#8DD83D;" d="M55.48,219.837c-17.952-17.443-26.92-19.326-29.943-19.326c-0.376,0-0.729,0.026-1.05,0.078
		c-0.524,0.084-1.007,0.33-1.384,0.703c-25.072,24.85-30.857,64.181-11.812,95.229c0.468,0.763,1.293,1.211,2.162,1.211
		c1.309,0,2.402-0.995,2.526-2.296c1.112-11.67,8.906-33.668,39.715-72.194C56.51,222.22,56.418,220.747,55.48,219.837z"/>
</g>
<g>
	<path style="fill:#79C422;" d="M29.738,293.266c-4.138,7.625-5.087,12.046-5.115,12.188c-0.373,2.296-0.584,6.815,1.211,8.361
		c16.259,14.024,31.815,20.008,52.016,20.008c3.701,0,7.156-0.227,10.445-0.631C62.989,330.021,41.457,314.717,29.738,293.266z"/>
	<path style="fill:#79C422;" d="M20.256,256.021c0-19.12,6.909-36.618,18.351-50.164c-7.085-4.626-11.208-5.347-13.069-5.347
		c-0.376,0-0.729,0.026-1.05,0.078c-0.524,0.084-1.007,0.33-1.384,0.703c-25.072,24.85-30.857,64.181-11.812,95.229
		c0.468,0.763,1.293,1.211,2.162,1.211c1.309,0,2.402-0.995,2.526-2.296c0.478-5.012,2.195-11.935,6.431-21.247
		C21.015,268.357,20.256,262.28,20.256,256.021z"/>
	<path style="fill:#79C422;" d="M54.328,191.67c9.807-6.677,21.224-11.153,33.543-12.765c-15.533-2.08-29.108,0.494-41.784,6.432
		c-1.024,0.48-1.607,1.58-1.429,2.697C45.082,190.696,47.105,189.701,54.328,191.67z"/>
</g>
<g>
</g>
<g>
</g>
<g>
</g>
<g>
</g>
<g>
</g>
<g>
</g>
<g>
</g>
<g>
</g>
<g>
</g>
<g>
</g>
<g>
</g>
<g>
</g>
<g>
</g>
<g>
</g>
<g>
</g>
</svg>
